<svg width="234" height="200" viewBox="0 0 234 200" fill="none" xmlns="http://www.w3.org/2000/svg">
<path d="M36.3638 67.3062L34.4204 67.1278C34.2561 66.4983 34.0197 65.8923 33.7165 65.3234L35.5607 63.0049L32.8637 60.1514M35.5607 75.809L33.7165 73.4905C34.0197 72.9198 34.2561 72.3121 34.4204 71.6809L37.276 71.4238V67.3901M30.6625 76.7112L32.8489 78.6573L34.6832 76.7165M19.1905 71.6809C19.357 72.3113 19.5933 72.9187 19.8945 73.4905L18.0552 75.809L20.7472 78.6573L22.9385 76.7112C23.4789 77.0299 24.0531 77.2799 24.6489 77.4561L24.8918 80.4775H28.7043L28.9522 77.4561M19.1707 61.8404L18.0552 63.0259L19.8945 65.3444C19.5934 65.9143 19.3571 66.52 19.1905 67.1488L16.3349 67.4111V71.4448L18.0552 71.6232M30.6625 62.1027C30.1217 61.7849 29.5477 61.535 28.9522 61.3578L28.7043 58.3365H24.8918L24.6489 61.3578C24.0531 61.534 23.4789 61.784 22.9385 62.1027L20.7472 60.1514L19.8896 61.0588M23.7565 66.0001C24.276 65.4803 24.9067 65.1013 25.5946 64.8954C26.2826 64.6894 27.0074 64.6625 27.7073 64.8171C28.4071 64.9717 29.0613 65.3031 29.6139 65.7831C30.1664 66.2631 30.6011 66.8775 30.8807 67.5737M25.2686 73.8053C24.4187 73.4728 23.6855 72.8727 23.1678 72.0858C22.6501 71.299 22.3729 70.3631 22.3733 69.4043M31.2277 69.4043C31.2277 70.6467 30.7613 71.8381 29.931 72.7166C29.1008 73.595 27.9747 74.0885 26.8005 74.0885" stroke="#263238" stroke-linecap="round" stroke-linejoin="round"/>
<path d="M208.395 14.7364L205.311 14.4531C205.047 13.4528 204.671 12.4896 204.19 11.5839L207.115 7.91205L202.837 3.38523M207.115 28.2276L204.19 24.5558C204.671 23.6501 205.047 22.6869 205.311 21.6866L209.837 21.2722V14.8675M199.367 29.6544L202.837 32.7492L205.747 29.6701M193.66 35.6132H196.233L196.625 30.8241M181.127 6.02893L179.353 7.9068L182.278 11.5786C181.789 12.4856 181.403 13.4504 181.127 14.4531L176.601 14.8675M199.332 6.47479C198.473 5.96966 197.561 5.57184 196.615 5.28933L196.224 0.500238H190.19L189.798 5.28933C188.85 5.57014 187.937 5.96803 187.077 6.47479L183.606 3.37999L182.248 4.81724M188.38 12.6854C189.202 11.8572 190.201 11.2519 191.292 10.9215C192.382 10.5911 193.533 10.5454 194.644 10.7883C195.755 11.0312 196.794 11.5554 197.672 12.3161C198.55 13.0767 199.24 14.0512 199.684 15.156M200.239 18.0462C200.239 20.018 199.499 21.9091 198.182 23.3039C196.865 24.6986 195.078 25.4829 193.214 25.4843" stroke="#263238" stroke-linecap="round" stroke-linejoin="round"/>
<g opacity="0.3">
<path d="M182.719 164.651C182.566 164.339 182.355 164.061 182.1 163.835C181.845 163.609 181.55 163.439 181.232 163.334L149.998 152.891C149.671 152.783 149.326 152.747 148.985 152.786C148.644 152.825 148.314 152.937 148.015 153.116L146.528 152.629C146.561 152.43 146.521 152.226 146.418 152.057C146.314 151.889 146.154 151.767 145.97 151.718C145.785 151.669 145.59 151.696 145.423 151.793C145.256 151.889 145.13 152.049 145.071 152.24L144.897 152.807L118.929 144.12C118.888 144.11 118.846 144.11 118.805 144.12L117.139 144.477C117.095 144.486 117.055 144.507 117.021 144.538C116.988 144.57 116.964 144.61 116.951 144.655C116.938 144.7 116.936 144.747 116.946 144.792C116.956 144.837 116.976 144.878 117.005 144.912L118.175 146.219C118.205 146.251 118.243 146.274 118.284 146.287L144.253 154.973L144.084 155.54C144.054 155.64 144.043 155.745 144.051 155.849C144.06 155.954 144.088 156.055 144.134 156.148C144.226 156.336 144.384 156.477 144.575 156.542C144.669 156.574 144.769 156.585 144.867 156.576C144.966 156.567 145.062 156.538 145.15 156.489C145.3 156.41 145.419 156.278 145.487 156.117L146.974 156.605C147.122 156.937 147.333 157.234 147.594 157.475C147.855 157.717 148.16 157.9 148.491 158.01L179.725 168.454C180.042 168.561 180.377 168.6 180.709 168.569C181.041 168.539 181.364 168.44 181.66 168.277C181.955 168.114 182.218 167.891 182.432 167.621C182.646 167.351 182.808 167.038 182.907 166.702C183.006 166.364 183.04 166.009 183.008 165.657C182.975 165.304 182.877 164.963 182.719 164.651Z" fill="black"/>
<path d="M80.0359 158.661L78.4643 158.136C78.4759 158.074 78.4657 158.009 78.4356 157.954C78.4055 157.899 78.3576 157.858 78.3007 157.837L76.1888 157.145C76.1257 157.125 76.0577 157.132 75.9994 157.164C75.941 157.197 75.8969 157.252 75.8764 157.318L75.3063 159.274C75.2877 159.341 75.2944 159.412 75.325 159.473C75.3557 159.533 75.4077 159.579 75.4699 159.6L77.5819 160.292H77.6562C77.7038 160.291 77.7501 160.276 77.7896 160.248C77.8292 160.22 77.8603 160.181 77.8793 160.135L79.4509 160.659C79.6296 160.72 79.7786 160.852 79.8658 161.028C79.953 161.203 79.9714 161.408 79.9169 161.598L75.455 176.784C75.4416 176.833 75.4414 176.885 75.4546 176.934C75.4677 176.983 75.4936 177.027 75.5294 177.062L75.0832 178.593C75.0589 178.657 75.0589 178.729 75.0832 178.793C75.115 178.852 75.1661 178.897 75.227 178.919L76.3672 179.291C76.3901 179.297 76.4138 179.297 76.4366 179.291C76.4897 179.291 76.5414 179.274 76.5842 179.241C76.627 179.208 76.6587 179.161 76.6746 179.108L77.1258 177.571C77.1534 177.578 77.1824 177.578 77.21 177.571C77.2389 177.556 77.2644 177.534 77.2849 177.508C77.3054 177.482 77.3205 177.451 77.329 177.418L81.7909 162.207C81.9989 161.485 81.9291 160.706 81.5967 160.039C81.2642 159.372 80.6961 158.871 80.0161 158.645L80.0359 158.661Z" fill="black"/>
<path d="M65.8522 169.98C65.8873 169.935 65.905 169.877 65.9018 169.818C65.9019 169.783 65.8948 169.749 65.8811 169.717C65.8674 169.685 65.8474 169.657 65.8224 169.634L64.1815 168.061C64.1576 168.037 64.1294 168.019 64.0988 168.007C64.0681 167.996 64.0355 167.991 64.003 167.992C63.9366 167.998 63.8745 168.03 63.8295 168.082L62.5355 169.598C62.5123 169.622 62.4939 169.651 62.4813 169.683C62.4687 169.715 62.4622 169.749 62.4622 169.784C62.4622 169.818 62.4687 169.853 62.4813 169.885C62.4939 169.917 62.5123 169.946 62.5355 169.97L64.1715 171.544C64.2188 171.586 64.2782 171.61 64.3401 171.612C64.3976 171.61 64.4525 171.586 64.4938 171.544L65.7134 172.708C65.8534 172.844 65.9372 173.032 65.9464 173.233C65.953 173.426 65.8871 173.615 65.763 173.757L55.694 185.554C55.6615 185.592 55.6405 185.639 55.6334 185.689C55.6263 185.74 55.6336 185.791 55.6543 185.837L54.6628 187.028C54.6395 187.053 54.6211 187.082 54.6085 187.113C54.5959 187.145 54.5894 187.18 54.5894 187.214C54.5894 187.249 54.5959 187.283 54.6085 187.315C54.6211 187.347 54.6395 187.376 54.6628 187.401L55.5452 188.24C55.5901 188.283 55.6483 188.307 55.7088 188.308C55.744 188.309 55.779 188.302 55.8114 188.287C55.8438 188.273 55.8731 188.251 55.8972 188.224L56.8888 187.033C56.915 187.038 56.9419 187.038 56.9681 187.033C57.033 187.028 57.0934 186.996 57.1366 186.944L67.2056 175.147C67.6831 174.586 67.9308 173.847 67.8945 173.093C67.8583 172.339 67.5411 171.631 67.0123 171.124L65.8522 169.98Z" fill="black"/>
<path d="M148.63 175.771L144.223 177.02L142.909 175.625L143.405 173.726L147.812 172.482C147.852 172.47 147.887 172.448 147.917 172.418C147.946 172.388 147.968 172.351 147.981 172.309C147.995 172.269 147.999 172.226 147.993 172.184C147.987 172.142 147.971 172.102 147.946 172.068C147.4 171.315 146.675 170.728 145.845 170.368C145.015 170.008 144.109 169.888 143.221 170.019C142.332 170.15 141.492 170.528 140.787 171.115C140.082 171.702 139.536 172.476 139.206 173.358L97.0658 185.281C96.3977 184.778 95.6179 184.466 94.8022 184.376C93.9865 184.286 93.1626 184.421 92.4107 184.767C91.6587 185.113 91.0042 185.66 90.5107 186.353C90.0173 187.046 89.7017 187.862 89.5946 188.722C89.5892 188.765 89.5939 188.808 89.608 188.848C89.6222 188.889 89.6455 188.925 89.6758 188.953C89.7062 188.982 89.7426 189.002 89.7821 189.012C89.8215 189.022 89.8627 189.022 89.902 189.011L94.0069 187.846L95.2215 189.132L94.7753 190.884L90.6704 192.048C90.6311 192.06 90.5951 192.081 90.5656 192.111C90.5361 192.141 90.514 192.178 90.5012 192.219C90.4885 192.26 90.4855 192.303 90.4925 192.346C90.4995 192.388 90.5164 192.428 90.5415 192.462C90.9846 193.073 91.5544 193.567 92.2069 193.907C92.8593 194.247 93.577 194.424 94.3043 194.424C94.7226 194.425 95.1392 194.369 95.5438 194.256C96.2204 194.064 96.8486 193.717 97.3834 193.238C97.9182 192.759 98.3464 192.161 98.6373 191.487L140.748 179.564C140.94 179.724 141.142 179.872 141.352 180.004C142.076 180.445 142.891 180.691 143.725 180.72C144.559 180.749 145.388 180.56 146.137 180.171C146.886 179.781 147.533 179.202 148.02 178.485C148.508 177.768 148.821 176.935 148.933 176.06C148.938 176.018 148.933 175.974 148.92 175.934C148.906 175.894 148.883 175.858 148.853 175.829C148.823 175.802 148.787 175.783 148.748 175.773C148.71 175.762 148.669 175.762 148.63 175.771Z" fill="black"/>
</g>
<path d="M152.79 154.653L152.294 156.316L118.369 144.965L117.199 143.664L118.865 143.307L152.79 154.653Z" fill="#999999" stroke="#263238" stroke-linecap="round" stroke-linejoin="round"/>
<path d="M148.04 152.34L146.236 151.737L146.28 151.579C146.321 151.444 146.309 151.297 146.247 151.17C146.185 151.044 146.079 150.949 145.951 150.905C145.822 150.862 145.683 150.875 145.564 150.94C145.444 151.006 145.354 151.119 145.313 151.254L144.322 154.548C144.281 154.687 144.294 154.838 144.358 154.967C144.423 155.096 144.533 155.192 144.664 155.235C144.795 155.279 144.938 155.265 145.06 155.197C145.181 155.129 145.273 155.013 145.313 154.874L145.358 154.716L147.163 155.319C147.29 155.643 147.482 155.934 147.726 156.171C147.97 156.408 148.26 156.587 148.576 156.694L179.809 167.132C180.387 167.326 181.015 167.268 181.553 166.972C182.091 166.676 182.497 166.165 182.679 165.553C182.862 164.941 182.808 164.277 182.528 163.708C182.248 163.138 181.766 162.71 181.187 162.516L149.954 152.072C149.636 151.967 149.3 151.936 148.969 151.982C148.638 152.028 148.321 152.15 148.04 152.34Z" fill="#48D8E8" stroke="#263238" stroke-linecap="round" stroke-linejoin="round"/>
<path d="M148.04 152.34L147.406 154.464" stroke="#263238" stroke-linecap="round" stroke-linejoin="round"/>
<path d="M145.343 154.716L145.918 152.796" stroke="#263238" stroke-linecap="round" stroke-linejoin="round"/>
<path d="M75.9183 175.665L75.344 177.629L76.4806 178.001L77.055 176.037L75.9183 175.665Z" fill="#999999" stroke="#263238" stroke-linecap="round" stroke-linejoin="round"/>
<path d="M77.1361 176.285L75.7133 175.819L80.1752 160.607C80.2494 160.35 80.2242 160.073 80.1052 159.836C79.9862 159.599 79.7831 159.421 79.5406 159.343L76.3478 158.294L76.7891 156.793L79.9818 157.842C80.2885 157.943 80.5735 158.106 80.8204 158.323C81.0674 158.541 81.2715 158.807 81.4211 159.108C81.5708 159.408 81.663 159.737 81.6925 160.075C81.722 160.413 81.6882 160.754 81.593 161.079L77.1361 176.285Z" fill="#999999" stroke="#263238" stroke-linecap="round" stroke-linejoin="round"/>
<path d="M76.1122 156.365L75.5408 158.32L77.6532 159.011L78.2246 157.057L76.1122 156.365Z" fill="#999999" stroke="#263238" stroke-linecap="round" stroke-linejoin="round"/>
<path d="M56.1513 184.637L54.8488 186.163L55.732 187.006L57.0344 185.48L56.1513 184.637Z" fill="#999999" stroke="#263238" stroke-linecap="round" stroke-linejoin="round"/>
<path d="M57.013 185.743L55.9075 184.694L65.9765 172.892C66.0608 172.793 66.1259 172.678 66.1681 172.553C66.2103 172.428 66.2287 172.296 66.2222 172.163C66.2158 172.03 66.1846 171.9 66.1305 171.781C66.0764 171.661 66.0005 171.554 65.907 171.465L63.4282 169.094L64.4197 167.924L66.8986 170.295C67.1397 170.523 67.3357 170.799 67.4753 171.107C67.615 171.416 67.6954 171.75 67.712 172.092C67.7286 172.433 67.681 172.775 67.572 173.097C67.463 173.418 67.2948 173.714 67.0771 173.967L57.013 185.743Z" fill="#999999" stroke="#263238" stroke-linecap="round" stroke-linejoin="round"/>
<path d="M64.0141 167.215L62.7183 168.734L64.3594 170.302L65.6552 168.783L64.0141 167.215Z" fill="#999999" stroke="#263238" stroke-linecap="round" stroke-linejoin="round"/>
<path d="M140.958 172.091L95.3603 185L96.8007 190.695L142.398 177.786L140.958 172.091Z" fill="#48D8E8" stroke="#263238" stroke-linecap="round" stroke-linejoin="round"/>
<path d="M93.1493 183.729C92.2887 183.972 91.5154 184.479 90.9269 185.187C90.3385 185.895 89.9612 186.771 89.8425 187.705L94.0863 186.504L95.4992 188.004L95.0035 190.05L90.7597 191.251C91.2577 191.936 91.9221 192.464 92.6819 192.781C93.4417 193.098 94.2686 193.19 95.0742 193.049C95.8798 192.907 96.634 192.537 97.2564 191.978C97.8787 191.418 98.3459 190.69 98.608 189.872C98.8701 189.054 98.9174 188.175 98.7448 187.331C98.5722 186.486 98.1861 185.707 97.6278 185.077C97.0695 184.446 96.3599 183.988 95.5747 183.75C94.7894 183.513 93.958 183.505 93.1691 183.729H93.1493Z" fill="#48D8E8" stroke="#263238" stroke-linecap="round" stroke-linejoin="round"/>
<path d="M145.15 179.239C146.072 178.977 146.901 178.433 147.532 177.674C148.163 176.915 148.567 175.976 148.694 174.974L144.148 176.259L142.636 174.654L143.191 172.467L147.733 171.176C147.199 170.443 146.487 169.877 145.673 169.538C144.859 169.199 143.973 169.1 143.11 169.252C142.248 169.404 141.44 169.801 140.773 170.4C140.107 170.999 139.606 171.779 139.325 172.655C139.045 173.532 138.994 174.473 139.179 175.377C139.363 176.282 139.777 177.117 140.374 177.792C140.972 178.468 141.732 178.959 142.573 179.214C143.414 179.469 144.305 179.477 145.15 179.239Z" fill="#48D8E8" stroke="#263238" stroke-linecap="round" stroke-linejoin="round"/>
<path d="M134.441 178.179L104.547 186.645C104.407 186.686 104.261 186.696 104.118 186.677C103.974 186.657 103.836 186.608 103.71 186.531C103.585 186.454 103.475 186.352 103.387 186.231C103.299 186.109 103.235 185.97 103.198 185.822C103.124 185.524 103.164 185.207 103.31 184.941C103.456 184.675 103.696 184.48 103.977 184.4L133.876 175.934C134.158 175.856 134.457 175.898 134.709 176.052C134.96 176.207 135.144 176.46 135.22 176.758C135.294 177.055 135.254 177.372 135.108 177.638C134.962 177.905 134.722 178.099 134.441 178.179Z" fill="#999999" stroke="#263238" stroke-linecap="round" stroke-linejoin="round"/>
<path d="M161.064 17.2909H167.846C167.977 17.2909 168.103 17.3462 168.196 17.4445C168.289 17.5429 168.342 17.6763 168.342 17.8155V20.8421H160.578V17.8102C160.579 17.6738 160.631 17.5433 160.721 17.4463C160.812 17.3494 160.935 17.2936 161.064 17.2909Z" fill="#BFBFBF" stroke="#263238" stroke-linecap="round" stroke-linejoin="round"/>
<path d="M170.3 17.2909H177.082C177.214 17.2909 177.34 17.3462 177.433 17.4445C177.526 17.5429 177.578 17.6763 177.578 17.8155V20.8421H169.809V17.8102C169.811 17.6729 169.863 17.5416 169.954 17.4445C170.046 17.3474 170.17 17.2923 170.3 17.2909Z" fill="#BFBFBF" stroke="#263238" stroke-linecap="round" stroke-linejoin="round"/>
<path d="M54.2859 17.2909H69.0845C69.216 17.2909 69.3421 17.3462 69.4351 17.4445C69.5281 17.5429 69.5803 17.6763 69.5803 17.8155V20.8421H53.7951V17.8102C53.7964 17.6729 53.8485 17.5416 53.9403 17.4445C54.0321 17.3474 54.1562 17.2923 54.2859 17.2909Z" fill="#BFBFBF" stroke="#263238" stroke-linecap="round" stroke-linejoin="round"/>
<path d="M191.687 123.511V28.9935C191.687 22.9765 187.077 18.0987 181.39 18.0987L50.1459 18.0987C44.459 18.0987 39.8489 22.9765 39.8489 28.9935V123.511C39.8489 129.528 44.459 134.406 50.1459 134.406H181.39C187.077 134.406 191.687 129.528 191.687 123.511Z" fill="#BFBFBF" stroke="#263238" stroke-linecap="round" stroke-linejoin="round"/>
<path d="M181.727 19.3209H49.819C44.9535 19.3209 41.0093 23.4941 41.0093 28.642V123.868C41.0093 129.016 44.9535 133.189 49.819 133.189H181.727C186.593 133.189 190.537 129.016 190.537 123.868V28.642C190.537 23.4941 186.593 19.3209 181.727 19.3209Z" fill="#263238"/>
<path d="M43.2201 72.0061C43.2201 72.1098 43.191 72.2113 43.1366 72.2975C43.0821 72.3838 43.0047 72.451 42.9141 72.4907C42.8235 72.5304 42.7238 72.5408 42.6276 72.5206C42.5315 72.5003 42.4431 72.4504 42.3738 72.377C42.3045 72.3036 42.2572 72.2102 42.2381 72.1084C42.219 72.0067 42.2288 71.9012 42.2663 71.8054C42.3038 71.7095 42.3674 71.6276 42.4489 71.5699C42.5304 71.5123 42.6263 71.4815 42.7244 71.4815C42.8558 71.4815 42.9819 71.5368 43.0749 71.6352C43.1679 71.7336 43.2201 71.867 43.2201 72.0061Z" fill="white" stroke="#263238" stroke-linecap="round" stroke-linejoin="round"/>
<path d="M43.6865 76.8948C43.6865 77.1023 43.6283 77.3052 43.5194 77.4777C43.4104 77.6502 43.2556 77.7847 43.0744 77.8641C42.8932 77.9435 42.6939 77.9642 42.5015 77.9238C42.3092 77.8833 42.1325 77.7834 41.9939 77.6367C41.8552 77.4899 41.7607 77.303 41.7225 77.0995C41.6842 76.896 41.7039 76.6851 41.7789 76.4934C41.854 76.3017 41.981 76.1378 42.1441 76.0226C42.3072 75.9073 42.4989 75.8457 42.695 75.8457C42.9579 75.8457 43.2101 75.9563 43.3961 76.153C43.582 76.3498 43.6865 76.6166 43.6865 76.8948Z" fill="white" stroke="#263238" stroke-linecap="round" stroke-linejoin="round"/>
<path d="M43.4237 80.2886C43.4247 80.4372 43.3839 80.5828 43.3066 80.7068C43.2293 80.8308 43.119 80.9278 42.9895 80.9854C42.8601 81.043 42.7174 81.0586 42.5795 81.0302C42.4417 81.0019 42.3149 80.9308 42.2152 80.8261C42.1156 80.7215 42.0476 80.5878 42.0198 80.4422C41.9921 80.2965 42.0058 80.1454 42.0593 80.0081C42.1128 79.8707 42.2037 79.7532 42.3204 79.6706C42.4371 79.5879 42.5743 79.5438 42.7147 79.5438C42.9019 79.5438 43.0815 79.6221 43.2143 79.7616C43.3471 79.9012 43.4224 80.0906 43.4237 80.2886Z" fill="white" stroke="#263238" stroke-linecap="round" stroke-linejoin="round"/>
<path d="M187.071 124.922V27.5877C187.071 25.047 185.125 22.9874 182.724 22.9874L48.8173 22.9874C46.4161 22.9874 44.4695 25.047 44.4695 27.5877V124.922C44.4695 127.463 46.4161 129.522 48.8173 129.522H182.724C185.125 129.522 187.071 127.463 187.071 124.922Z" fill="white" stroke="#263238" stroke-linecap="round" stroke-linejoin="round"/>
<path opacity="0.3" d="M187.071 124.922V27.5877C187.071 25.047 185.125 22.9874 182.724 22.9874L48.8173 22.9874C46.4161 22.9874 44.4695 25.047 44.4695 27.5877V124.922C44.4695 127.463 46.4161 129.522 48.8173 129.522H182.724C185.125 129.522 187.071 127.463 187.071 124.922Z" fill="#48D8E8"/>
<path d="M83.2237 45.674H55.8278C55.6963 45.674 55.5702 45.6187 55.4772 45.5203C55.3842 45.422 55.332 45.2885 55.332 45.1494C55.332 45.0103 55.3842 44.8769 55.4772 44.7785C55.5702 44.6801 55.6963 44.6249 55.8278 44.6249H83.2237C83.3552 44.6249 83.4813 44.6801 83.5743 44.7785C83.6673 44.8769 83.7195 45.0103 83.7195 45.1494C83.7195 45.2885 83.6673 45.422 83.5743 45.5203C83.4813 45.6187 83.3552 45.674 83.2237 45.674Z" fill="#263238"/>
<path d="M75.1973 51.9737H55.8278C55.6963 51.9737 55.5702 51.9185 55.4772 51.8201C55.3842 51.7217 55.332 51.5883 55.332 51.4492C55.332 51.3101 55.3842 51.1767 55.4772 51.0783C55.5702 50.9799 55.6963 50.9246 55.8278 50.9246H75.1973C75.3288 50.9246 75.4549 50.9799 75.5479 51.0783C75.6408 51.1767 75.6931 51.3101 75.6931 51.4492C75.6931 51.5883 75.6408 51.7217 75.5479 51.8201C75.4549 51.9185 75.3288 51.9737 75.1973 51.9737Z" fill="#263238"/>
<path d="M87.2394 58.2735H55.8278C55.6963 58.2735 55.5702 58.2183 55.4772 58.1199C55.3842 58.0215 55.332 57.8881 55.332 57.749C55.332 57.6099 55.3842 57.4764 55.4772 57.3781C55.5702 57.2797 55.6963 57.2244 55.8278 57.2244H87.2394C87.3709 57.2244 87.497 57.2797 87.59 57.3781C87.683 57.4764 87.7352 57.6099 87.7352 57.749C87.7352 57.8881 87.683 58.0215 87.59 58.1199C87.497 58.2183 87.3709 58.2735 87.2394 58.2735Z" fill="#263238"/>
<path d="M83.2237 64.5733H55.8278C55.6963 64.5733 55.5702 64.518 55.4772 64.4197C55.3842 64.3213 55.332 64.1879 55.332 64.0488C55.332 63.9096 55.3842 63.7762 55.4772 63.6778C55.5702 63.5795 55.6963 63.5242 55.8278 63.5242H83.2237C83.3552 63.5242 83.4813 63.5795 83.5743 63.6778C83.6673 63.7762 83.7195 63.9096 83.7195 64.0488C83.7195 64.1879 83.6673 64.3213 83.5743 64.4197C83.4813 64.518 83.3552 64.5733 83.2237 64.5733Z" fill="#263238"/>
<path d="M75.1973 70.8731H55.8278C55.6963 70.8731 55.5702 70.8178 55.4772 70.7194C55.3842 70.6211 55.332 70.4877 55.332 70.3485C55.332 70.2094 55.3842 70.076 55.4772 69.9776C55.5702 69.8793 55.6963 69.824 55.8278 69.824H75.1973C75.3288 69.824 75.4549 69.8793 75.5479 69.9776C75.6408 70.076 75.6931 70.2094 75.6931 70.3485C75.6931 70.4877 75.6408 70.6211 75.5479 70.7194C75.4549 70.8178 75.3288 70.8731 75.1973 70.8731Z" fill="#263238"/>
<path opacity="0.2" d="M91.5326 46.4818H96.9167C97.3986 46.4818 97.7892 46.0684 97.7892 45.5586V44.7298C97.7892 44.2199 97.3986 43.8066 96.9167 43.8066H91.5326C91.0507 43.8066 90.6601 44.2199 90.6601 44.7298V45.5586C90.6601 46.0684 91.0507 46.4818 91.5326 46.4818Z" fill="black"/>
<path d="M91.528 46.4818H92.6236C93.1055 46.4818 93.4961 46.0684 93.4961 45.5586V44.7298C93.4961 44.2199 93.1055 43.8066 92.6236 43.8066H91.528C91.0461 43.8066 90.6554 44.2199 90.6554 44.7298V45.5586C90.6554 46.0684 91.0461 46.4818 91.528 46.4818Z" fill="#48D8E8" stroke="#263238" stroke-linecap="round" stroke-linejoin="round"/>
<path opacity="0.2" d="M96.9169 50.1064H91.5329C91.051 50.1064 90.6603 50.5197 90.6603 51.0296V51.8583C90.6603 52.3682 91.051 52.7815 91.5329 52.7815H96.9169C97.3988 52.7815 97.7894 52.3682 97.7894 51.8583V51.0296C97.7894 50.5197 97.3988 50.1064 96.9169 50.1064Z" fill="black"/>
<path d="M96.9216 50.1064H95.8259C95.344 50.1064 94.9534 50.5197 94.9534 51.0296V51.8583C94.9534 52.3682 95.344 52.7815 95.8259 52.7815H96.9216C97.4035 52.7815 97.7941 52.3682 97.7941 51.8583V51.0296C97.7941 50.5197 97.4035 50.1064 96.9216 50.1064Z" fill="#999999" stroke="#263238" stroke-linecap="round" stroke-linejoin="round"/>
<path opacity="0.2" d="M96.9169 56.4062H91.5329C91.051 56.4062 90.6603 56.8195 90.6603 57.3294V58.1581C90.6603 58.668 91.051 59.0813 91.5329 59.0813H96.9169C97.3988 59.0813 97.7894 58.668 97.7894 58.1581V57.3294C97.7894 56.8195 97.3988 56.4062 96.9169 56.4062Z" fill="black"/>
<path d="M96.9216 56.4062H95.8259C95.344 56.4062 94.9534 56.8195 94.9534 57.3294V58.1581C94.9534 58.668 95.344 59.0813 95.8259 59.0813H96.9216C97.4035 59.0813 97.7941 58.668 97.7941 58.1581V57.3294C97.7941 56.8195 97.4035 56.4062 96.9216 56.4062Z" fill="#999999" stroke="#263238" stroke-linecap="round" stroke-linejoin="round"/>
<path opacity="0.2" d="M91.5326 65.3758H96.9167C97.3986 65.3758 97.7892 64.9625 97.7892 64.4526V63.6238C97.7892 63.114 97.3986 62.7007 96.9167 62.7007H91.5326C91.0507 62.7007 90.6601 63.114 90.6601 63.6238V64.4526C90.6601 64.9625 91.0507 65.3758 91.5326 65.3758Z" fill="black"/>
<path d="M91.528 65.3758H92.6236C93.1055 65.3758 93.4961 64.9625 93.4961 64.4526V63.6238C93.4961 63.114 93.1055 62.7007 92.6236 62.7007H91.528C91.0461 62.7007 90.6554 63.114 90.6554 63.6238V64.4526C90.6554 64.9625 91.0461 65.3758 91.528 65.3758Z" fill="#48D8E8" stroke="#263238" stroke-linecap="round" stroke-linejoin="round"/>
<path opacity="0.2" d="M96.9169 69.0057H91.5329C91.051 69.0057 90.6603 69.419 90.6603 69.9289V70.7577C90.6603 71.2675 91.051 71.6809 91.5329 71.6809H96.9169C97.3988 71.6809 97.7894 71.2675 97.7894 70.7577V69.9289C97.7894 69.419 97.3988 69.0057 96.9169 69.0057Z" fill="black"/>
<path d="M96.9216 69.0057H95.8259C95.344 69.0057 94.9534 69.419 94.9534 69.9289V70.7577C94.9534 71.2675 95.344 71.6809 95.8259 71.6809H96.9216C97.4035 71.6809 97.7941 71.2675 97.7941 70.7577V69.9289C97.7941 69.419 97.4035 69.0057 96.9216 69.0057Z" fill="#999999" stroke="#263238" stroke-linecap="round" stroke-linejoin="round"/>
<path d="M135.775 51.9737H110.788C110.656 51.9737 110.53 51.9185 110.437 51.8201C110.344 51.7217 110.292 51.5883 110.292 51.4492C110.292 51.3101 110.344 51.1767 110.437 51.0783C110.53 50.9799 110.656 50.9246 110.788 50.9246H135.775C135.906 50.9246 136.032 50.9799 136.125 51.0783C136.218 51.1767 136.27 51.3101 136.27 51.4492C136.27 51.5883 136.218 51.7217 136.125 51.8201C136.032 51.9185 135.906 51.9737 135.775 51.9737Z" fill="#263238"/>
<path d="M131.764 45.674H110.788C110.656 45.674 110.53 45.6187 110.437 45.5203C110.344 45.422 110.292 45.2885 110.292 45.1494C110.292 45.0103 110.344 44.8769 110.437 44.7785C110.53 44.6801 110.656 44.6249 110.788 44.6249H131.764C131.895 44.6249 132.021 44.6801 132.114 44.7785C132.207 44.8769 132.26 45.0103 132.26 45.1494C132.26 45.2885 132.207 45.422 132.114 45.5203C132.021 45.6187 131.895 45.674 131.764 45.674Z" fill="#263238"/>
<path d="M135.775 70.8731H110.788C110.656 70.8731 110.53 70.8178 110.437 70.7194C110.344 70.6211 110.292 70.4877 110.292 70.3485C110.292 70.2094 110.344 70.076 110.437 69.9776C110.53 69.8793 110.656 69.824 110.788 69.824H135.775C135.906 69.824 136.032 69.8793 136.125 69.9776C136.218 70.076 136.27 70.2094 136.27 70.3485C136.27 70.4877 136.218 70.6211 136.125 70.7194C136.032 70.8178 135.906 70.8731 135.775 70.8731Z" fill="#263238"/>
<path d="M127.748 64.5733H110.788C110.656 64.5733 110.53 64.518 110.437 64.4197C110.344 64.3213 110.292 64.1879 110.292 64.0488C110.292 63.9096 110.344 63.7762 110.437 63.6778C110.53 63.5795 110.656 63.5242 110.788 63.5242H127.748C127.88 63.5242 128.006 63.5795 128.099 63.6778C128.192 63.7762 128.244 63.9096 128.244 64.0488C128.244 64.1879 128.192 64.3213 128.099 64.4197C128.006 64.518 127.88 64.5733 127.748 64.5733Z" fill="#263238"/>
<path d="M123.732 58.2735H110.788C110.656 58.2735 110.53 58.2183 110.437 58.1199C110.344 58.0215 110.292 57.8881 110.292 57.749C110.292 57.6099 110.344 57.4764 110.437 57.3781C110.53 57.2797 110.656 57.2244 110.788 57.2244H123.732C123.864 57.2244 123.99 57.2797 124.083 57.3781C124.176 57.4764 124.228 57.6099 124.228 57.749C124.228 57.8881 124.176 58.0215 124.083 58.1199C123.99 58.2183 123.864 58.2735 123.732 58.2735Z" fill="#263238"/>
<path d="M144.728 44.2053H142.964V46.0726H144.728V44.2053Z" fill="#999999" stroke="#263238" stroke-linecap="round" stroke-linejoin="round"/>
<path d="M147.351 44.2053H145.586V46.0726H147.351V44.2053Z" fill="#999999" stroke="#263238" stroke-linecap="round" stroke-linejoin="round"/>
<path d="M149.974 44.2053H148.209V46.0726H149.974V44.2053Z" fill="#999999" stroke="#263238" stroke-linecap="round" stroke-linejoin="round"/>
<path d="M152.601 44.2053H150.836V46.0726H152.601V44.2053Z" fill="#999999" stroke="#263238" stroke-linecap="round" stroke-linejoin="round"/>
<path d="M155.224 44.2053H153.459V46.0726H155.224V44.2053Z" fill="#999999" stroke="#263238" stroke-linecap="round" stroke-linejoin="round"/>
<path d="M157.847 44.2053H156.082V46.0726H157.847V44.2053Z" fill="#999999" stroke="#263238" stroke-linecap="round" stroke-linejoin="round"/>
<path d="M160.469 44.2053H158.704V46.0726H160.469V44.2053Z" fill="#999999" stroke="#263238" stroke-linecap="round" stroke-linejoin="round"/>
<path d="M163.097 44.2053H161.332V46.0726H163.097V44.2053Z" fill="#999999" stroke="#263238" stroke-linecap="round" stroke-linejoin="round"/>
<path d="M165.719 44.2053H163.954V46.0726H165.719V44.2053Z" fill="#48D8E8" stroke="#263238" stroke-linecap="round" stroke-linejoin="round"/>
<path d="M168.342 44.2053H166.577V46.0726H168.342V44.2053Z" fill="#48D8E8" stroke="#263238" stroke-linecap="round" stroke-linejoin="round"/>
<path opacity="0.2" d="M170.964 44.2053H169.199V46.0726H170.964V44.2053Z" fill="#263238"/>
<path opacity="0.2" d="M173.592 44.2053H171.827V46.0726H173.592V44.2053Z" fill="#263238"/>
<path opacity="0.2" d="M176.215 44.2053H174.45V46.0726H176.215V44.2053Z" fill="#263238"/>
<path d="M144.728 50.505H142.964V52.3724H144.728V50.505Z" fill="#999999" stroke="#263238" stroke-linecap="round" stroke-linejoin="round"/>
<path d="M147.351 50.505H145.586V52.3724H147.351V50.505Z" fill="#999999" stroke="#263238" stroke-linecap="round" stroke-linejoin="round"/>
<path d="M149.974 50.505H148.209V52.3724H149.974V50.505Z" fill="#999999" stroke="#263238" stroke-linecap="round" stroke-linejoin="round"/>
<path d="M152.601 50.505H150.836V52.3724H152.601V50.505Z" fill="#999999" stroke="#263238" stroke-linecap="round" stroke-linejoin="round"/>
<path d="M155.224 50.505H153.459V52.3724H155.224V50.505Z" fill="#999999" stroke="#263238" stroke-linecap="round" stroke-linejoin="round"/>
<path d="M157.847 50.505H156.082V52.3724H157.847V50.505Z" fill="#999999" stroke="#263238" stroke-linecap="round" stroke-linejoin="round"/>
<path d="M160.469 50.505H158.704V52.3724H160.469V50.505Z" fill="#999999" stroke="#263238" stroke-linecap="round" stroke-linejoin="round"/>
<path opacity="0.2" d="M163.097 50.505H161.332V52.3724H163.097V50.505Z" fill="#263238"/>
<path opacity="0.2" d="M165.719 50.505H163.954V52.3724H165.719V50.505Z" fill="#263238"/>
<path opacity="0.2" d="M168.342 50.505H166.577V52.3724H168.342V50.505Z" fill="#263238"/>
<path opacity="0.2" d="M170.964 50.505H169.199V52.3724H170.964V50.505Z" fill="#263238"/>
<path opacity="0.2" d="M173.592 50.505H171.827V52.3724H173.592V50.505Z" fill="#263238"/>
<path opacity="0.2" d="M176.215 50.505H174.45V52.3724H176.215V50.505Z" fill="#263238"/>
<path d="M144.728 69.4043H142.964V71.2717H144.728V69.4043Z" fill="#999999" stroke="#263238" stroke-linecap="round" stroke-linejoin="round"/>
<path d="M147.351 69.4043H145.586V71.2717H147.351V69.4043Z" fill="#999999" stroke="#263238" stroke-linecap="round" stroke-linejoin="round"/>
<path d="M149.974 69.4043H148.209V71.2717H149.974V69.4043Z" fill="#999999" stroke="#263238" stroke-linecap="round" stroke-linejoin="round"/>
<path opacity="0.2" d="M152.601 69.4043H150.836V71.2717H152.601V69.4043Z" fill="#263238"/>
<path opacity="0.2" d="M155.224 69.4043H153.459V71.2717H155.224V69.4043Z" fill="#263238"/>
<path opacity="0.2" d="M157.847 69.4043H156.082V71.2717H157.847V69.4043Z" fill="#263238"/>
<path opacity="0.2" d="M160.469 69.4043H158.704V71.2717H160.469V69.4043Z" fill="#263238"/>
<path opacity="0.2" d="M163.097 69.4043H161.332V71.2717H163.097V69.4043Z" fill="#263238"/>
<path opacity="0.2" d="M165.719 69.4043H163.954V71.2717H165.719V69.4043Z" fill="#263238"/>
<path opacity="0.2" d="M168.342 69.4043H166.577V71.2717H168.342V69.4043Z" fill="#263238"/>
<path opacity="0.2" d="M170.964 69.4043H169.199V71.2717H170.964V69.4043Z" fill="#263238"/>
<path opacity="0.2" d="M173.592 69.4043H171.827V71.2717H173.592V69.4043Z" fill="#263238"/>
<path opacity="0.2" d="M176.215 69.4043H174.45V71.2717H176.215V69.4043Z" fill="#263238"/>
<path d="M144.728 63.1046H142.964V64.972H144.728V63.1046Z" fill="#999999" stroke="#263238" stroke-linecap="round" stroke-linejoin="round"/>
<path d="M147.351 63.1046H145.586V64.972H147.351V63.1046Z" fill="#999999" stroke="#263238" stroke-linecap="round" stroke-linejoin="round"/>
<path d="M149.974 63.1046H148.209V64.972H149.974V63.1046Z" fill="#999999" stroke="#263238" stroke-linecap="round" stroke-linejoin="round"/>
<path d="M152.601 63.1046H150.836V64.972H152.601V63.1046Z" fill="#999999" stroke="#263238" stroke-linecap="round" stroke-linejoin="round"/>
<path d="M155.224 63.1046H153.459V64.972H155.224V63.1046Z" fill="#999999" stroke="#263238" stroke-linecap="round" stroke-linejoin="round"/>
<path d="M157.847 63.1046H156.082V64.972H157.847V63.1046Z" fill="#999999" stroke="#263238" stroke-linecap="round" stroke-linejoin="round"/>
<path d="M160.469 63.1046H158.704V64.972H160.469V63.1046Z" fill="#999999" stroke="#263238" stroke-linecap="round" stroke-linejoin="round"/>
<path d="M163.097 63.1046H161.332V64.972H163.097V63.1046Z" fill="#999999" stroke="#263238" stroke-linecap="round" stroke-linejoin="round"/>
<path d="M165.719 63.1046H163.954V64.972H165.719V63.1046Z" fill="#48D8E8" stroke="#263238" stroke-linecap="round" stroke-linejoin="round"/>
<path d="M168.342 63.1046H166.577V64.972H168.342V63.1046Z" fill="#48D8E8" stroke="#263238" stroke-linecap="round" stroke-linejoin="round"/>
<path d="M170.964 63.1046H169.199V64.972H170.964V63.1046Z" fill="#48D8E8" stroke="#263238" stroke-linecap="round" stroke-linejoin="round"/>
<path d="M173.592 63.1046H171.827V64.972H173.592V63.1046Z" fill="#48D8E8" stroke="#263238" stroke-linecap="round" stroke-linejoin="round"/>
<path opacity="0.2" d="M176.215 63.1046H174.45V64.972H176.215V63.1046Z" fill="#263238"/>
<path d="M144.728 56.8048H142.964V58.6722H144.728V56.8048Z" fill="#999999" stroke="#263238" stroke-linecap="round" stroke-linejoin="round"/>
<path d="M147.351 56.8048H145.586V58.6722H147.351V56.8048Z" fill="#999999" stroke="#263238" stroke-linecap="round" stroke-linejoin="round"/>
<path d="M149.974 56.8048H148.209V58.6722H149.974V56.8048Z" fill="#999999" stroke="#263238" stroke-linecap="round" stroke-linejoin="round"/>
<path d="M152.601 56.8048H150.836V58.6722H152.601V56.8048Z" fill="#999999" stroke="#263238" stroke-linecap="round" stroke-linejoin="round"/>
<path d="M155.224 56.8048H153.459V58.6722H155.224V56.8048Z" fill="#999999" stroke="#263238" stroke-linecap="round" stroke-linejoin="round"/>
<path opacity="0.2" d="M157.847 56.8048H156.082V58.6722H157.847V56.8048Z" fill="#263238"/>
<path opacity="0.2" d="M160.469 56.8048H158.704V58.6722H160.469V56.8048Z" fill="#263238"/>
<path opacity="0.2" d="M163.097 56.8048H161.332V58.6722H163.097V56.8048Z" fill="#263238"/>
<path opacity="0.2" d="M165.719 56.8048H163.954V58.6722H165.719V56.8048Z" fill="#263238"/>
<path opacity="0.2" d="M168.342 56.8048H166.577V58.6722H168.342V56.8048Z" fill="#263238"/>
<path opacity="0.2" d="M170.964 56.8048H169.199V58.6722H170.964V56.8048Z" fill="#263238"/>
<path opacity="0.2" d="M173.592 56.8048H171.827V58.6722H173.592V56.8048Z" fill="#263238"/>
<path opacity="0.2" d="M176.215 56.8048H174.45V58.6722H176.215V56.8048Z" fill="#263238"/>
<path opacity="0.4" d="M79.7138 47.106H55.5799C55.5129 47.106 55.4486 47.0778 55.4012 47.0276C55.3537 46.9775 55.3271 46.9094 55.3271 46.8385C55.3271 46.8036 55.3337 46.769 55.3464 46.7369C55.3592 46.7047 55.3779 46.6756 55.4015 46.6511C55.425 46.6267 55.4529 46.6075 55.4836 46.5946C55.5142 46.5818 55.547 46.5755 55.5799 46.5762H79.7138C79.7468 46.5755 79.7795 46.5818 79.8102 46.5946C79.8408 46.6075 79.8687 46.6267 79.8923 46.6511C79.9158 46.6756 79.9345 46.7047 79.9473 46.7369C79.9601 46.769 79.9666 46.8036 79.9666 46.8385C79.9666 46.9094 79.94 46.9775 79.8926 47.0276C79.8452 47.0778 79.7809 47.106 79.7138 47.106Z" fill="#263238"/>
<path opacity="0.4" d="M81.3201 53.4058H55.5799C55.5129 53.4058 55.4486 53.3776 55.4012 53.3274C55.3537 53.2772 55.3271 53.2092 55.3271 53.1382C55.3271 53.1034 55.3337 53.0688 55.3464 53.0367C55.3592 53.0045 55.3779 52.9753 55.4015 52.9509C55.425 52.9265 55.4529 52.9073 55.4836 52.8944C55.5142 52.8815 55.547 52.8753 55.5799 52.876H81.3201C81.353 52.8753 81.3858 52.8815 81.4165 52.8944C81.4471 52.9073 81.475 52.9265 81.4986 52.9509C81.5221 52.9753 81.5408 53.0045 81.5536 53.0367C81.5664 53.0688 81.5729 53.1034 81.5729 53.1382C81.5729 53.2092 81.5463 53.2772 81.4989 53.3274C81.4514 53.3776 81.3871 53.4058 81.3201 53.4058Z" fill="#263238"/>
<path opacity="0.4" d="M65.2622 59.7055H55.5799C55.5129 59.7055 55.4486 59.6773 55.4012 59.6272C55.3537 59.577 55.3271 59.5089 55.3271 59.438C55.3271 59.4031 55.3337 59.3686 55.3464 59.3364C55.3592 59.3042 55.3779 59.2751 55.4015 59.2507C55.425 59.2262 55.4529 59.207 55.4836 59.1942C55.5142 59.1813 55.547 59.175 55.5799 59.1757H65.2622C65.2952 59.175 65.328 59.1813 65.3586 59.1942C65.3893 59.207 65.4172 59.2262 65.4407 59.2507C65.4643 59.2751 65.483 59.3042 65.4957 59.3364C65.5085 59.3686 65.5151 59.4031 65.5151 59.438C65.5151 59.5089 65.4884 59.577 65.441 59.6272C65.3936 59.6773 65.3293 59.7055 65.2622 59.7055Z" fill="#263238"/>
<path opacity="0.4" d="M73.2887 66.0053H55.5799C55.5129 66.0053 55.4486 65.9771 55.4012 65.9269C55.3537 65.8768 55.3271 65.8087 55.3271 65.7378C55.3271 65.7029 55.3337 65.6684 55.3464 65.6362C55.3592 65.604 55.3779 65.5749 55.4015 65.5504C55.425 65.526 55.4529 65.5068 55.4836 65.4939C55.5142 65.4811 55.547 65.4748 55.5799 65.4755H73.2887C73.3216 65.4748 73.3544 65.4811 73.3851 65.4939C73.4157 65.5068 73.4436 65.526 73.4672 65.5504C73.4907 65.5749 73.5094 65.604 73.5222 65.6362C73.535 65.6684 73.5415 65.7029 73.5415 65.7378C73.5415 65.8087 73.5149 65.8768 73.4675 65.9269C73.4201 65.9771 73.3557 66.0053 73.2887 66.0053Z" fill="#263238"/>
<path opacity="0.4" d="M73.2887 72.3313H55.5799C55.5129 72.3313 55.4486 72.3031 55.4012 72.253C55.3537 72.2028 55.3271 72.1347 55.3271 72.0638C55.3271 72.0289 55.3337 71.9944 55.3464 71.9622C55.3592 71.93 55.3779 71.9009 55.4015 71.8764C55.425 71.852 55.4529 71.8328 55.4836 71.8199C55.5142 71.8071 55.547 71.8008 55.5799 71.8015H73.2887C73.3216 71.8008 73.3544 71.8071 73.3851 71.8199C73.4157 71.8328 73.4436 71.852 73.4672 71.8764C73.4907 71.9009 73.5094 71.93 73.5222 71.9622C73.535 71.9944 73.5415 72.0289 73.5415 72.0638C73.5415 72.1347 73.5149 72.2028 73.4675 72.253C73.4201 72.3031 73.3557 72.3313 73.2887 72.3313Z" fill="#263238"/>
<path opacity="0.4" d="M129.855 47.106H110.521C110.488 47.106 110.455 47.099 110.425 47.0855C110.394 47.072 110.367 47.0522 110.344 47.0273C110.32 47.0024 110.302 46.9729 110.29 46.9405C110.278 46.908 110.272 46.8734 110.273 46.8385C110.273 46.7689 110.299 46.7022 110.345 46.653C110.392 46.6038 110.455 46.5762 110.521 46.5762H129.855C129.888 46.5755 129.921 46.5818 129.952 46.5946C129.982 46.6075 130.01 46.6267 130.034 46.6511C130.057 46.6756 130.076 46.7047 130.089 46.7369C130.102 46.769 130.108 46.8036 130.108 46.8385C130.108 46.9094 130.082 46.9775 130.034 47.0276C129.987 47.0778 129.923 47.106 129.855 47.106Z" fill="#263238"/>
<path opacity="0.4" d="M121.829 53.4057H110.535C110.502 53.4057 110.47 53.3988 110.439 53.3853C110.409 53.3718 110.381 53.352 110.358 53.3271C110.335 53.3022 110.317 53.2726 110.305 53.2402C110.293 53.2078 110.287 53.1731 110.287 53.1382C110.287 53.0687 110.313 53.002 110.36 52.9528C110.406 52.9036 110.47 52.876 110.535 52.876H121.829C121.895 52.876 121.958 52.9036 122.004 52.9528C122.051 53.002 122.077 53.0687 122.077 53.1382C122.077 53.1731 122.071 53.2078 122.059 53.2402C122.047 53.2726 122.029 53.3022 122.006 53.3271C121.983 53.352 121.955 53.3718 121.925 53.3853C121.894 53.3988 121.862 53.4057 121.829 53.4057Z" fill="#263238"/>
<path opacity="0.4" d="M121.829 59.7055H110.535C110.502 59.7055 110.47 59.6986 110.439 59.6851C110.409 59.6716 110.381 59.6518 110.358 59.6269C110.335 59.6019 110.317 59.5724 110.305 59.54C110.293 59.5076 110.287 59.4729 110.287 59.438C110.287 59.3684 110.313 59.3017 110.36 59.2526C110.406 59.2034 110.47 59.1757 110.535 59.1757H121.829C121.895 59.1757 121.958 59.2034 122.004 59.2526C122.051 59.3017 122.077 59.3684 122.077 59.438C122.077 59.4729 122.071 59.5076 122.059 59.54C122.047 59.5724 122.029 59.6019 122.006 59.6269C121.983 59.6518 121.955 59.6716 121.925 59.6851C121.894 59.6986 121.862 59.7055 121.829 59.7055Z" fill="#263238"/>
<path opacity="0.4" d="M133.871 66.0053H110.535C110.502 66.0053 110.47 65.9984 110.439 65.9849C110.409 65.9713 110.381 65.9516 110.358 65.9266C110.335 65.9017 110.317 65.8722 110.305 65.8398C110.293 65.8073 110.287 65.7727 110.287 65.7378C110.287 65.6682 110.313 65.6015 110.36 65.5523C110.406 65.5032 110.47 65.4755 110.535 65.4755H133.871C133.937 65.4755 134 65.5032 134.046 65.5523C134.093 65.6015 134.119 65.6682 134.119 65.7378C134.119 65.7727 134.114 65.8073 134.101 65.8398C134.089 65.8722 134.071 65.9017 134.048 65.9266C134.025 65.9516 133.997 65.9713 133.967 65.9849C133.937 65.9984 133.904 66.0053 133.871 66.0053Z" fill="#263238"/>
<path opacity="0.4" d="M133.871 72.3313H110.535C110.502 72.3313 110.47 72.3243 110.439 72.3108C110.409 72.2973 110.381 72.2775 110.358 72.2526C110.335 72.2277 110.317 72.1982 110.305 72.1657C110.293 72.1333 110.287 72.0986 110.287 72.0638C110.287 71.9942 110.313 71.9275 110.36 71.8783C110.406 71.8291 110.47 71.8015 110.535 71.8015H133.871C133.937 71.8015 134 71.8291 134.046 71.8783C134.093 71.9275 134.119 71.9942 134.119 72.0638C134.119 72.0986 134.114 72.1333 134.101 72.1657C134.089 72.1982 134.071 72.2277 134.048 72.2526C134.025 72.2775 133.997 72.2973 133.967 72.3108C133.937 72.3243 133.904 72.3313 133.871 72.3313Z" fill="#263238"/>
<path d="M110.771 109.626C116.905 104.917 118.271 95.8381 113.82 89.3474C109.37 82.8567 100.789 81.4123 94.6542 86.1211C88.5196 90.8299 87.1544 99.9089 91.6049 106.4C96.0554 112.89 104.636 114.335 110.771 109.626Z" fill="#999999" stroke="#263238" stroke-linecap="round" stroke-linejoin="round"/>
<path d="M105.231 89.6412C105.086 89.5909 104.966 89.482 104.898 89.3385C104.829 89.1949 104.817 89.0284 104.864 88.8754L105.682 86.1845C105.729 86.0317 105.832 85.9051 105.968 85.8323C106.103 85.7596 106.261 85.7466 106.405 85.7963C106.477 85.8201 106.544 85.8588 106.601 85.9101C106.659 85.9614 106.706 86.0243 106.74 86.0951C106.774 86.1659 106.794 86.2433 106.8 86.3226C106.806 86.4019 106.796 86.4815 106.772 86.5569L105.954 89.2478C105.907 89.4008 105.804 89.5278 105.669 89.6014C105.533 89.675 105.376 89.6893 105.231 89.6412Z" fill="#48D8E8" stroke="#263238" stroke-linecap="round" stroke-linejoin="round"/>
<g opacity="0.4">
<path d="M102.712 114.819C111.553 114.819 118.72 107.236 118.72 97.8818C118.72 88.5275 111.553 80.9443 102.712 80.9443C93.871 80.9443 86.7038 88.5275 86.7038 97.8818C86.7038 107.236 93.871 114.819 102.712 114.819Z" stroke="#263238" stroke-width="3" stroke-miterlimit="10" stroke-dasharray="0.98 14.63"/>
</g>
<path d="M71.2113 119.016H58.2669C58.1354 119.016 58.0093 118.96 57.9164 118.862C57.8234 118.764 57.7711 118.63 57.7711 118.491C57.7711 118.352 57.8234 118.219 57.9164 118.12C58.0093 118.022 58.1354 117.967 58.2669 117.967H71.2113C71.3428 117.967 71.4689 118.022 71.5619 118.12C71.6549 118.219 71.7071 118.352 71.7071 118.491C71.7071 118.56 71.6943 118.628 71.6694 118.692C71.6445 118.756 71.6079 118.813 71.5619 118.862C71.5159 118.911 71.4612 118.949 71.4011 118.976C71.3409 119.002 71.2764 119.016 71.2113 119.016Z" fill="#263238"/>
<path opacity="0.4" d="M70.3883 120.453H59.0948C59.0618 120.453 59.0292 120.446 58.9988 120.433C58.9684 120.419 58.9408 120.399 58.9177 120.374C58.8946 120.349 58.8765 120.32 58.8643 120.287C58.8522 120.255 58.8462 120.22 58.8469 120.185C58.8462 120.151 58.8522 120.116 58.8643 120.083C58.8765 120.051 58.8946 120.022 58.9177 119.997C58.9408 119.972 58.9684 119.952 58.9988 119.938C59.0292 119.925 59.0618 119.918 59.0948 119.918H70.3883C70.4213 119.918 70.4539 119.925 70.4843 119.938C70.5147 119.952 70.5423 119.972 70.5654 119.997C70.5884 120.022 70.6066 120.051 70.6188 120.083C70.6309 120.116 70.6369 120.151 70.6362 120.185C70.6369 120.22 70.6309 120.255 70.6188 120.287C70.6066 120.32 70.5884 120.349 70.5654 120.374C70.5423 120.399 70.5147 120.419 70.4843 120.433C70.4539 120.446 70.4213 120.453 70.3883 120.453Z" fill="#263238"/>
<path d="M109.187 119.016H96.2376C96.1061 119.016 95.98 118.96 95.887 118.862C95.7941 118.764 95.7418 118.63 95.7418 118.491C95.7418 118.352 95.7941 118.219 95.887 118.12C95.98 118.022 96.1061 117.967 96.2376 117.967H109.187C109.318 117.967 109.445 118.022 109.538 118.12C109.631 118.219 109.683 118.352 109.683 118.491C109.683 118.63 109.631 118.764 109.538 118.862C109.445 118.96 109.318 119.016 109.187 119.016Z" fill="#263238"/>
<path opacity="0.4" d="M108.359 120.453H97.0655C97.0325 120.453 96.9999 120.446 96.9695 120.433C96.9391 120.419 96.9115 120.399 96.8884 120.374C96.8653 120.349 96.8472 120.32 96.835 120.287C96.8229 120.255 96.8169 120.22 96.8176 120.185C96.8169 120.151 96.8229 120.116 96.835 120.083C96.8472 120.051 96.8653 120.022 96.8884 119.997C96.9115 119.972 96.9391 119.952 96.9695 119.938C96.9999 119.925 97.0325 119.918 97.0655 119.918H108.359C108.392 119.918 108.425 119.925 108.455 119.938C108.485 119.952 108.513 119.972 108.536 119.997C108.559 120.022 108.577 120.051 108.589 120.083C108.602 120.116 108.608 120.151 108.607 120.185C108.608 120.22 108.602 120.255 108.589 120.287C108.577 120.32 108.559 120.349 108.536 120.374C108.513 120.399 108.485 120.419 108.455 120.433C108.425 120.446 108.392 120.453 108.359 120.453Z" fill="#263238"/>
<path opacity="0.5" d="M181.206 79.313H131.57C130.683 79.313 129.964 80.0739 129.964 81.0125V119.252C129.964 120.19 130.683 120.951 131.57 120.951H181.206C182.094 120.951 182.813 120.19 182.813 119.252V81.0125C182.813 80.0739 182.094 79.313 181.206 79.313Z" fill="#48D8E8"/>
<path d="M177.493 85.8278H156.924C156.415 85.8278 156.002 86.2646 156.002 86.8035V88.2565C156.002 88.7953 156.415 89.2321 156.924 89.2321H177.493C178.003 89.2321 178.416 88.7953 178.416 88.2565V86.8035C178.416 86.2646 178.003 85.8278 177.493 85.8278Z" fill="#999999" stroke="#263238" stroke-linecap="round" stroke-linejoin="round"/>
<path d="M176.11 86.8769L176.879 88.183L177.647 86.8769H176.11Z" fill="#48D8E8"/>
<path d="M165.872 88.0676H157.747C157.615 88.0676 157.489 88.0124 157.396 87.914C157.303 87.8156 157.251 87.6822 157.251 87.5431C157.251 87.404 157.303 87.2705 157.396 87.1722C157.489 87.0738 157.615 87.0185 157.747 87.0185H165.872C166.004 87.0185 166.13 87.0738 166.223 87.1722C166.316 87.2705 166.368 87.404 166.368 87.5431C166.368 87.6822 166.316 87.8156 166.223 87.914C166.13 88.0124 166.004 88.0676 165.872 88.0676Z" fill="#263238"/>
<path d="M177.493 111.027H156.924C156.415 111.027 156.002 111.464 156.002 112.003V113.456C156.002 113.994 156.415 114.431 156.924 114.431H177.493C178.003 114.431 178.416 113.994 178.416 113.456V112.003C178.416 111.464 178.003 111.027 177.493 111.027Z" fill="#999999" stroke="#263238" stroke-linecap="round" stroke-linejoin="round"/>
<path d="M176.11 112.076L176.879 113.382L177.647 112.076H176.11Z" fill="#48D8E8"/>
<path d="M165.872 113.246H157.747C157.615 113.246 157.489 113.19 157.396 113.092C157.303 112.994 157.251 112.86 157.251 112.721C157.251 112.582 157.303 112.449 157.396 112.35C157.489 112.252 157.615 112.197 157.747 112.197H165.872C166.004 112.197 166.13 112.252 166.223 112.35C166.316 112.449 166.368 112.582 166.368 112.721C166.368 112.86 166.316 112.994 166.223 113.092C166.13 113.19 166.004 113.246 165.872 113.246Z" fill="#263238"/>
<path d="M177.493 92.1276H156.924C156.415 92.1276 156.002 92.5644 156.002 93.1033V94.5562C156.002 95.0951 156.415 95.5319 156.924 95.5319H177.493C178.003 95.5319 178.416 95.0951 178.416 94.5562V93.1033C178.416 92.5644 178.003 92.1276 177.493 92.1276Z" fill="#999999" stroke="#263238" stroke-linecap="round" stroke-linejoin="round"/>
<path d="M176.11 93.1767L176.879 94.4828L177.647 93.1767H176.11Z" fill="#48D8E8"/>
<path d="M168.282 94.3622H157.747C157.615 94.3622 157.489 94.3069 157.396 94.2085C157.303 94.1102 157.251 93.9767 157.251 93.8376C157.251 93.6985 157.303 93.5651 157.396 93.4667C157.489 93.3683 157.615 93.3131 157.747 93.3131H168.282C168.413 93.3131 168.539 93.3683 168.632 93.4667C168.725 93.5651 168.778 93.6985 168.778 93.8376C168.778 93.9767 168.725 94.1102 168.632 94.2085C168.539 94.3069 168.413 94.3622 168.282 94.3622Z" fill="#263238"/>
<path d="M177.493 98.4274H156.924C156.415 98.4274 156.002 98.8642 156.002 99.403V100.856C156.002 101.395 156.415 101.832 156.924 101.832H177.493C178.003 101.832 178.416 101.395 178.416 100.856V99.403C178.416 98.8642 178.003 98.4274 177.493 98.4274Z" fill="#999999" stroke="#263238" stroke-linecap="round" stroke-linejoin="round"/>
<path d="M176.11 99.4765L176.879 100.788L177.647 99.4765H176.11Z" fill="#48D8E8"/>
<path d="M165.872 100.657H157.747C157.615 100.657 157.489 100.601 157.396 100.503C157.303 100.405 157.251 100.271 157.251 100.132C157.251 99.993 157.303 99.8596 157.396 99.7612C157.489 99.6629 157.615 99.6076 157.747 99.6076H165.872C166.004 99.6076 166.13 99.6629 166.223 99.7612C166.316 99.8596 166.368 99.993 166.368 100.132C166.368 100.271 166.316 100.405 166.223 100.503C166.13 100.601 166.004 100.657 165.872 100.657Z" fill="#263238"/>
<path d="M177.493 104.727H156.924C156.415 104.727 156.002 105.164 156.002 105.703V107.156C156.002 107.695 156.415 108.131 156.924 108.131H177.493C178.003 108.131 178.416 107.695 178.416 107.156V105.703C178.416 105.164 178.003 104.727 177.493 104.727Z" fill="#999999" stroke="#263238" stroke-linecap="round" stroke-linejoin="round"/>
<path d="M176.11 105.776L176.879 107.082L177.647 105.776H176.11Z" fill="#48D8E8"/>
<path d="M168.282 106.951H157.747C157.615 106.951 157.489 106.896 157.396 106.798C157.303 106.699 157.251 106.566 157.251 106.427C157.251 106.288 157.303 106.154 157.396 106.056C157.489 105.957 157.615 105.902 157.747 105.902H168.282C168.413 105.902 168.539 105.957 168.632 106.056C168.725 106.154 168.778 106.288 168.778 106.427C168.778 106.566 168.725 106.699 168.632 106.798C168.539 106.896 168.413 106.951 168.282 106.951Z" fill="#263238"/>
<path d="M151.019 88.0676H134.862C134.731 88.0676 134.605 88.0124 134.512 87.914C134.419 87.8156 134.367 87.6822 134.367 87.5431C134.367 87.404 134.419 87.2705 134.512 87.1722C134.605 87.0738 134.731 87.0185 134.862 87.0185H151.019C151.151 87.0185 151.277 87.0738 151.37 87.1722C151.463 87.2705 151.515 87.404 151.515 87.5431C151.515 87.6822 151.463 87.8156 151.37 87.914C151.277 88.0124 151.151 88.0676 151.019 88.0676Z" fill="#263238"/>
<path d="M146.201 94.3622H134.862C134.731 94.3622 134.605 94.3069 134.512 94.2085C134.419 94.1102 134.367 93.9767 134.367 93.8376C134.367 93.6985 134.419 93.5651 134.512 93.4667C134.605 93.3683 134.731 93.3131 134.862 93.3131H146.201C146.332 93.3131 146.458 93.3683 146.551 93.4667C146.644 93.5651 146.696 93.6985 146.696 93.8376C146.696 93.9767 146.644 94.1102 146.551 94.2085C146.458 94.3069 146.332 94.3622 146.201 94.3622Z" fill="#263238"/>
<path d="M147.807 100.657H134.862C134.731 100.657 134.605 100.601 134.512 100.503C134.419 100.405 134.367 100.271 134.367 100.132C134.367 99.993 134.419 99.8596 134.512 99.7612C134.605 99.6629 134.731 99.6076 134.862 99.6076H147.807C147.938 99.6076 148.064 99.6629 148.157 99.7612C148.25 99.8596 148.303 99.993 148.303 100.132C148.303 100.271 148.25 100.405 148.157 100.503C148.064 100.601 147.938 100.657 147.807 100.657Z" fill="#263238"/>
<path d="M143.791 106.951H134.867C134.736 106.951 134.61 106.896 134.517 106.798C134.424 106.699 134.372 106.566 134.372 106.427C134.372 106.288 134.424 106.154 134.517 106.056C134.61 105.957 134.736 105.902 134.867 105.902H143.791C143.923 105.902 144.049 105.957 144.142 106.056C144.235 106.154 144.287 106.288 144.287 106.427C144.287 106.566 144.235 106.699 144.142 106.798C144.049 106.896 143.923 106.951 143.791 106.951Z" fill="#263238"/>
<path d="M146.201 113.246H134.862C134.731 113.246 134.605 113.19 134.512 113.092C134.419 112.994 134.367 112.86 134.367 112.721C134.367 112.582 134.419 112.449 134.512 112.35C134.605 112.252 134.731 112.197 134.862 112.197H146.201C146.332 112.197 146.458 112.252 146.551 112.35C146.644 112.449 146.696 112.582 146.696 112.721C146.696 112.86 146.644 112.994 146.551 113.092C146.458 113.19 146.332 113.246 146.201 113.246Z" fill="#263238"/>
<path d="M78.3349 99.9136C79.3923 91.9732 74.1657 84.6293 66.6609 83.5105C59.1561 82.3917 52.2151 87.9217 51.1577 95.8621C50.1003 103.803 55.327 111.146 62.8317 112.265C70.3365 113.384 77.2775 107.854 78.3349 99.9136Z" fill="#999999" stroke="#263238" stroke-linecap="round" stroke-linejoin="round"/>
<path d="M72.9415 97.5461C72.9382 97.4665 72.9498 97.3869 72.9758 97.312C73.0017 97.2372 73.0414 97.1685 73.0926 97.1099C73.1437 97.0514 73.2054 97.0042 73.2739 96.971C73.3424 96.9378 73.4165 96.9194 73.4918 96.9167L76.159 96.8065C76.2343 96.803 76.3095 96.8153 76.3803 96.8428C76.451 96.8702 76.516 96.9122 76.5713 96.9663C76.6266 97.0205 76.6712 97.0857 76.7026 97.1582C76.7339 97.2307 76.7514 97.3091 76.7539 97.3888C76.7573 97.4684 76.7456 97.548 76.7197 97.6229C76.6938 97.6977 76.6541 97.7664 76.6029 97.825C76.5517 97.8835 76.4901 97.9307 76.4216 97.9639C76.353 97.9971 76.279 98.0155 76.2036 98.0182L73.5364 98.1284C73.4611 98.1319 73.3859 98.1196 73.3152 98.0921C73.2444 98.0647 73.1795 98.0227 73.1242 97.9686C73.0688 97.9144 73.0242 97.8492 72.9929 97.7767C72.9615 97.7042 72.9441 97.6258 72.9415 97.5461Z" fill="#48D8E8" stroke="#263238" stroke-linecap="round" stroke-linejoin="round"/>
<g opacity="0.4">
<path d="M64.7414 114.819C73.5825 114.819 80.7497 107.236 80.7497 97.8818C80.7497 88.5275 73.5825 80.9443 64.7414 80.9443C55.9003 80.9443 48.7331 88.5275 48.7331 97.8818C48.7331 107.236 55.9003 114.819 64.7414 114.819Z" stroke="#263238" stroke-width="3" stroke-miterlimit="10" stroke-dasharray="0.98 14.63"/>
</g>
<path d="M117.357 126.732L115.771 126.081L114.189 126.732" stroke="#263238" stroke-linecap="round" stroke-linejoin="round"/>
<path d="M117.357 128.006L115.771 127.356L114.189 128.006" stroke="#263238" stroke-linecap="round" stroke-linejoin="round"/>
<path d="M181.326 27.7608H50.2204C49.399 27.7608 48.7331 28.4653 48.7331 29.3344V35.3667C48.7331 36.2358 49.399 36.9403 50.2204 36.9403H181.326C182.147 36.9403 182.813 36.2358 182.813 35.3667V29.3344C182.813 28.4653 182.147 27.7608 181.326 27.7608Z" fill="#48D8E8" stroke="#263238" stroke-linecap="round" stroke-linejoin="round"/>
<path d="M108.666 32.8699V31.8208L107.928 31.7526C107.884 31.5898 107.822 31.4331 107.744 31.2857L108.24 30.6878L107.546 29.9534L106.981 30.4779C106.842 30.3941 106.694 30.329 106.539 30.2839L106.475 29.5075H105.483L105.424 30.2839C105.27 30.328 105.121 30.3932 104.983 30.4779L104.418 29.9534L103.723 30.6878L104.219 31.2857C104.145 31.4344 104.085 31.5908 104.041 31.7526L103.302 31.8208V32.8699L104.041 32.9381C104.085 33.0998 104.145 33.2563 104.219 33.4049L103.723 33.9976L104.418 34.7372L104.983 34.2127C105.121 34.2957 105.27 34.3592 105.424 34.4015L105.483 35.1831H106.475L106.539 34.4015C106.693 34.3583 106.842 34.2948 106.981 34.2127L107.546 34.7372L108.24 33.9976L107.744 33.4049C107.822 33.2575 107.884 33.1008 107.928 32.9381L108.666 32.8699ZM105.964 33.557C105.738 33.557 105.516 33.4858 105.328 33.3524C105.139 33.2191 104.992 33.0295 104.906 32.8078C104.819 32.5861 104.797 32.3422 104.841 32.107C104.886 31.8718 104.996 31.6559 105.156 31.4867C105.317 31.3174 105.521 31.2024 105.744 31.1563C105.966 31.1101 106.197 31.1349 106.406 31.2274C106.615 31.3199 106.794 31.476 106.919 31.676C107.044 31.8759 107.111 32.1107 107.11 32.3506C107.11 32.5094 107.08 32.6668 107.022 32.8135C106.965 32.9602 106.88 33.0934 106.774 33.2055C106.667 33.3176 106.541 33.4064 106.402 33.4667C106.263 33.527 106.114 33.5577 105.964 33.557Z" fill="#263238"/>
<path d="M111.036 29.8432C111.74 29.8432 112.097 30.2891 112.097 31.0654V31.2228H111.418V31.0182C111.418 30.672 111.284 30.5409 111.056 30.5409C110.828 30.5409 110.694 30.672 110.694 31.0182C110.694 31.3644 110.838 31.6372 111.309 32.0673C111.913 32.6286 112.107 33.0325 112.107 33.5885C112.133 33.7483 112.124 33.9123 112.08 34.0677C112.036 34.2231 111.959 34.3657 111.854 34.4841C111.749 34.6025 111.62 34.6937 111.476 34.7503C111.333 34.807 111.179 34.8276 111.026 34.8107C110.317 34.8107 109.95 34.3648 109.95 33.5885V33.2895H110.634V33.6357C110.634 33.9871 110.778 34.1078 111.006 34.1078C111.234 34.1078 111.383 33.9871 111.383 33.6357C111.383 33.2842 111.239 33.0167 110.763 32.5866C110.158 32.0201 109.97 31.6214 109.97 31.0602C109.97 30.3048 110.332 29.8432 111.036 29.8432Z" fill="#263238"/>
<path d="M113.242 31.9676H114.234V32.66H113.242V34.0868H114.492V34.7844H112.509V29.9167H114.492V30.6091H113.242V31.9676Z" fill="#263238"/>
<path d="M114.725 29.9167H116.96V30.6091H116.207V34.8054H115.483V30.6091H114.725V29.9167Z" fill="#263238"/>
<path d="M117.064 29.9167H119.3V30.6091H118.542V34.8054H117.823V30.6091H117.064V29.9167Z" fill="#263238"/>
<path d="M119.613 29.9167H120.337V34.7844H119.613V29.9167Z" fill="#263238"/>
<path d="M121.521 31.2595V34.7844H120.872V29.9167H121.779L122.508 32.8279V29.9167H123.152V34.7844H122.414L121.521 31.2595Z" fill="#263238"/>
<path d="M124.754 32.0726H125.746V33.6147C125.772 33.7745 125.763 33.9386 125.719 34.094C125.675 34.2494 125.597 34.3919 125.493 34.5103C125.388 34.6288 125.259 34.7199 125.115 34.7766C124.971 34.8332 124.817 34.8539 124.665 34.8369C123.956 34.8369 123.589 34.391 123.589 33.6147V31.0812C123.589 30.3048 123.956 29.859 124.665 29.859C124.817 29.842 124.971 29.8627 125.115 29.9193C125.259 29.976 125.388 30.0671 125.493 30.1856C125.597 30.304 125.675 30.4465 125.719 30.6019C125.763 30.7573 125.772 30.9214 125.746 31.0812V31.5585H125.106V31.034C125.106 30.6878 124.962 30.5566 124.729 30.5566C124.496 30.5566 124.358 30.6878 124.358 31.034V33.6567C124.358 34.0081 124.501 34.1288 124.729 34.1288C124.957 34.1288 125.106 34.0081 125.106 33.6567V32.7597H124.779L124.754 32.0726Z" fill="#263238"/>
<path d="M127.203 29.8432C127.907 29.8432 128.269 30.2891 128.269 31.0654V31.2228H127.584V31.0182C127.584 30.672 127.451 30.5409 127.223 30.5409C126.994 30.5409 126.861 30.672 126.861 31.0182C126.861 31.3644 127.004 31.6372 127.48 32.0673C127.719 32.2345 127.915 32.4602 128.053 32.725C128.191 32.9899 128.267 33.2861 128.274 33.5885C128.274 34.3648 127.907 34.8107 127.198 34.8107C127.045 34.8276 126.891 34.807 126.748 34.7503C126.604 34.6937 126.475 34.6025 126.37 34.4841C126.265 34.3657 126.188 34.2231 126.144 34.0677C126.1 33.9123 126.091 33.7483 126.117 33.5885V33.2895H126.801V33.6357C126.801 33.9871 126.945 34.1078 127.178 34.1078C127.411 34.1078 127.55 33.9871 127.55 33.6357C127.55 33.2842 127.406 33.0167 126.935 32.5866C126.33 32.0201 126.137 31.6214 126.137 31.0602C126.137 30.3048 126.499 29.8432 127.203 29.8432Z" fill="#263238"/>
<g opacity="0.4">
<path d="M106.485 22.9874L44.4694 88.5922V27.5877C44.4694 26.3676 44.9275 25.1975 45.7429 24.3348C46.5582 23.4721 47.6641 22.9874 48.8173 22.9874H106.485Z" fill="white"/>
<path d="M126.985 22.9874L44.4694 110.293V106.783L123.668 22.9874H126.985Z" fill="white"/>
<path d="M160.602 22.9874L59.9123 129.522H58.8762L159.561 22.9874H160.602Z" fill="white"/>
</g>
<path opacity="0.3" d="M170.969 46.3087C167.499 46.0726 166.577 52.3776 166.577 58.6774C166.577 64.9772 168.56 69.0477 169.199 71.2665C169.839 73.4853 169.809 80.8551 168.783 83.8136C167.756 86.772 163.409 96.0827 160.578 101.517C157.747 106.951 161.718 123.469 163.954 127.671C166.19 131.872 178.044 135.827 180.651 140.784C183.259 145.741 182.074 147.168 184.464 150.856C186.853 154.543 198.167 167.463 204.403 190.611L209.812 112.05L189.317 88.7181L170.969 46.3087Z" fill="black" fill-opacity="0.7"/>
<path d="M203.625 194.062L203.536 194.178L203.952 193.994C203.828 194.026 203.714 194.052 203.625 194.062ZM233.604 154.895C233.222 154.228 232.86 153.583 232.513 152.959C225.434 140.192 224.175 134.715 223.332 131.033C223.016 129.358 222.503 127.732 221.805 126.191L221.393 125.352C220.222 123.166 219.323 120.828 218.721 118.397C218.295 116.461 218.895 111.746 219.475 107.187C219.891 103.898 220.288 100.798 220.248 99.0358V98.4116C220.149 93.7956 219.941 84.1965 219.033 81.5056C218.161 78.9196 217.283 78.5104 215.687 77.7761L215.191 77.5348C214.591 77.2515 213.58 76.6588 212.41 75.9611C209.783 74.4242 206.505 72.4991 204.825 72.2054C203.251 71.9663 201.65 71.9964 200.085 72.2946C198.043 70.5426 194.567 68.2556 193.511 68.1821C192.456 68.1087 189.813 68.9008 189.372 69.0319C188.783 68.5152 188.148 68.0586 187.478 67.6681C185.966 66.9442 183.418 67.0386 182.957 67.0649C181.217 64.054 179.486 61.0431 178.767 59.7213C177.444 57.3608 173.81 48.774 172.739 46.209C172.551 45.7579 172.441 45.4904 172.432 45.4746C172.419 45.4432 172.396 45.4173 172.367 45.4012C172.332 45.4012 169.159 44.2052 167.831 47.321C166.502 50.4368 168.099 57.6231 169.789 60.2353C170.607 61.4995 172.788 66.6138 175 71.9012C174.841 72.0533 174.39 72.4677 173.77 73.0184C171.99 74.5921 168.812 77.2568 167.057 77.86C165.119 78.5209 165.293 88.9489 165.426 97.3311C165.476 100.415 165.521 103.101 165.426 104.675C165.352 106.17 166.537 107.974 168.351 109.92H168.376C170.641 112.218 173.021 114.386 175.505 116.414C180.061 120.28 184.771 124.282 185.257 127.088C185.684 129.901 186.88 132.52 188.698 134.621C191.132 137.275 199.852 177.602 202.579 190.28C203.075 192.635 203.387 194.031 203.402 194.073L203.645 194.02C205.385 191.739 233.599 155.031 233.579 155.026C233.594 155.008 233.604 154.987 233.609 154.964C233.613 154.941 233.611 154.917 233.604 154.895ZM174.519 83.5933C174.866 83.2366 177.206 80.766 177.652 78.3111C179.238 82.0983 180.22 84.3748 180.463 84.6056C180.706 84.8364 180.661 86.0429 180.622 87.1969C180.552 88.2079 180.552 89.223 180.622 90.234C180.205 90.6012 177.538 93.0298 176.958 95.0336L174.821 92.2168L174.519 83.5933Z" fill="white"/>
<path opacity="0.4" d="M182.263 87.3123C182.996 84.0129 179.288 80.7188 174.965 71.9064C174.806 72.0586 174.355 72.4729 173.735 73.0237C174.39 74.8963 174.866 77.0627 173.964 77.839C172.248 79.3182 171.579 79.3654 171.658 80.9863C171.738 82.6071 173.726 94.0579 172.888 96.7226C172.05 99.3873 177.845 100.122 178.748 100.651C179.65 101.181 178.708 96.5023 180.909 94.5353C183.11 92.5682 181.445 90.9893 182.263 87.3123ZM176.978 95.0493L174.841 92.2325L174.519 83.5933C174.866 83.2366 177.206 80.766 177.652 78.3111C179.238 82.0983 180.22 84.3748 180.463 84.6056C180.706 84.8364 180.661 86.0429 180.622 87.1969C180.552 88.2079 180.552 89.223 180.622 90.234C180.225 90.6169 177.558 93.0456 176.978 95.0493Z" fill="#48D8E8"/>
<path opacity="0.4" d="M202.559 190.322C199.833 177.644 191.112 137.317 188.678 134.663C186.86 132.562 185.664 129.943 185.237 127.13C184.742 124.319 180.042 120.311 175.486 116.456C173.001 114.428 170.621 112.26 168.356 109.962C172.818 113.901 183.819 122.027 185.817 122.095C187.89 122.158 188.063 130.965 191.419 133.273C194.632 135.471 207.621 174.245 202.559 190.322Z" fill="#48D8E8"/>
<path opacity="0.4" d="M232.513 152.954C226.435 151.207 220.982 138.099 220.674 134.899C220.313 131.143 220.377 128.269 216.158 123.244C211.939 118.218 214.463 115.496 214.463 115.496C214.8 117.18 217.655 119.818 217.655 119.818C216.505 116.036 217.819 102.299 218.359 99.7335C218.855 97.478 219.043 83.5618 216.376 78.9563C213.258 76.8949 213.55 80.3883 211.106 80.21C209.783 80.1103 207.581 78.5314 205.534 78.4895C203.64 78.4632 203.625 81.1909 198.291 78.5681C195.609 77.2463 194.325 81.2905 191.236 79.6172C186.581 77.0522 183.452 67.7468 180.403 64.9877C178.976 63.6816 175.733 57.9011 175.104 54.3447C174.608 51.5909 171.172 54.1506 169.541 51.1974C168.203 48.7583 168.931 45.2439 172.709 46.2562C173.79 48.8213 177.414 57.408 178.738 59.7685C179.476 61.0903 181.187 64.1012 182.927 67.1121C183.388 67.0859 185.936 66.9915 187.448 67.7153C188.119 68.1058 188.753 68.5624 189.342 69.0791C189.783 68.948 192.416 68.1455 193.482 68.2294C194.548 68.3133 198.013 70.5898 200.056 72.3418C201.621 72.0436 203.221 72.0135 204.795 72.2526C206.476 72.5464 209.753 74.4715 212.38 76.0084C213.55 76.7008 214.562 77.2935 215.162 77.582L215.657 77.8233C217.254 78.5577 218.136 78.9668 219.004 81.5528C219.911 84.2437 220.119 93.8429 220.218 98.4589V99.0831C220.258 100.846 219.861 103.946 219.445 107.234C218.865 111.793 218.265 116.508 218.691 118.444C219.294 120.875 220.192 123.213 221.364 125.399L221.775 126.239C222.473 127.779 222.986 129.405 223.302 131.08C224.175 134.71 225.434 140.186 232.513 152.954Z" fill="#48D8E8"/>
<path d="M191.013 77.6397C189.544 77.1007 188.268 76.095 187.359 74.7599C185.901 72.5673 180.21 62.601 178.634 59.7894C177.057 56.9779 172.293 45.5218 172.293 45.5218C172.293 45.5218 169.204 44.3259 167.91 47.3735C166.616 50.4211 168.084 57.429 169.858 60.1671C171.633 62.9052 179.868 83.8398 180.547 84.5269C181.226 85.2141 180.051 90.6956 181.39 92.0699" stroke="#263238" stroke-linecap="round" stroke-linejoin="round"/>
<path d="M180.771 90.3022C180.771 90.3022 177.469 93.1715 177.032 95.3221L174.727 92.2797L174.395 83.5408C174.395 83.5408 177.37 80.5771 177.593 77.86" stroke="#263238" stroke-linecap="round" stroke-linejoin="round"/>
<path d="M175.118 71.9327C175.118 71.9327 169.63 77.1099 167.062 77.9859C164.494 78.8619 165.808 98.9047 165.525 104.69C165.243 110.476 184.325 121.145 185.356 127.109C185.779 129.898 186.967 132.494 188.772 134.574C191.702 137.768 203.496 194.062 203.496 194.062" stroke="#263238" stroke-linecap="round" stroke-linejoin="round"/>
<path d="M182.862 67.196C182.862 67.196 185.777 67.0072 187.399 67.7783C189.02 68.5493 195.504 74.8019 197.081 76.0031C198.657 77.2043 201.047 77.7131 201.488 78.972" stroke="#263238" stroke-linecap="round" stroke-linejoin="round"/>
<path d="M189.318 69.1841C189.318 69.1841 192.342 68.2294 193.472 68.3186C194.602 68.4077 198.831 71.2193 200.71 73.0395C202.147 74.4707 203.816 75.6151 205.638 76.4175" stroke="#263238" stroke-linecap="round" stroke-linejoin="round"/>
<path d="M200.026 72.431C201.593 72.1235 203.198 72.0899 204.775 72.3313C207.195 72.7509 213.203 76.7322 215.112 77.6449C217.021 78.5576 217.958 78.7465 218.905 81.5475C219.851 84.3486 220.035 94.8762 220.129 99.0358C220.223 103.195 217.854 115.045 218.607 118.444C219.361 121.843 220.818 124.45 221.696 126.27C224.279 131.631 221.889 134.526 233.5 154.989" stroke="#263238" stroke-linecap="round" stroke-linejoin="round"/>
<path d="M203.724 80.168C205.896 82.754 204.944 87.0553 204.453 88.2984C203.962 89.5416 204.884 94.8762 205.038 97.7035" stroke="#263238" stroke-linecap="round" stroke-linejoin="round"/>
<path d="M188.038 80.3673C192.426 81.0335 193.467 84.3801 193.492 86.4888" stroke="#263238" stroke-linecap="round" stroke-linejoin="round"/>
<path d="M207.279 78.1013C208.598 78.1695 211.716 80.7765 211.964 84.4221" stroke="#263238" stroke-linecap="round" stroke-linejoin="round"/>
<path d="M174.395 83.5408C174.395 83.5408 173.968 81.4794 173.339 81.1961" stroke="#263238" stroke-linecap="round" stroke-linejoin="round"/>
<path d="M174.727 92.264C174.918 93.468 175.188 94.6564 175.535 95.8204C175.977 97.0793 175.188 98.8575 175.188 98.8575" stroke="#263238" stroke-linecap="round" stroke-linejoin="round"/>
<path d="M177.032 95.3221C176.898 97.3154 178.713 99.702 179.179 99.3873" stroke="#263238" stroke-linecap="round" stroke-linejoin="round"/>
<path opacity="0.3" d="M73.6902 88.6866C76.3128 90.0766 73.7844 104.664 69.5258 108.525L65.515 125.137L69.5258 143.307L79.4956 136.693C79.4956 136.693 80.4872 130.22 84.1211 128.006C87.7551 125.793 87.765 129.297 87.765 129.297C87.765 129.297 83.8782 139.515 84.1211 143.307C84.3641 147.1 77.6316 154.123 74.4587 159.191C71.2858 164.258 63.3833 162.458 55.4361 167.919C47.489 173.379 24.2029 199.392 24.2029 199.392L39.1255 134.883L73.6902 88.6866Z" fill="black" fill-opacity="0.7"/>
<path d="M78.1818 131.033C77.4484 132 76.7855 133.024 76.1988 134.096C75.8716 134.663 75.5642 135.256 75.2618 135.864C75.123 136.132 74.9891 136.389 74.8602 136.677L74.8106 136.782C74.6619 137.092 74.5181 137.401 74.3694 137.716C74.3533 137.759 74.3351 137.801 74.3149 137.842C74.186 138.114 74.067 138.366 73.948 138.66C73.829 138.954 73.6704 139.295 73.5415 139.609L73.1895 140.454C72.8474 141.272 72.5252 142.09 72.198 142.877C71.8707 143.664 71.6278 144.367 71.3651 145.059C71.3353 145.128 71.3105 145.196 71.2857 145.264C71.2163 145.437 71.1519 145.61 71.0924 145.788C70.7801 146.622 70.4925 147.388 70.2298 148.054C70.2125 148.109 70.1909 148.161 70.1653 148.212C70.1653 148.254 70.1256 148.301 70.1009 148.343C69.5488 149.263 68.8126 150.044 67.9443 150.63C67.7708 150.761 67.5923 150.892 67.4039 151.018C66.9081 151.38 66.3182 151.737 65.7133 152.099L65.2523 152.361C64.8804 152.576 64.5037 152.786 64.112 152.99C59.6501 155.393 54.1471 157.554 52.7441 159.159C50.885 161.299 50.5627 163.046 48.2822 165.564C47.6288 166.286 46.9298 166.961 46.1901 167.583C43.3097 170.054 36.6169 183.23 32.4871 191.712C30.4297 195.935 29.0168 198.998 29.0168 198.998L0.525152 184.836C0.525152 184.836 15.4824 162.868 16.236 159.133C16.9895 155.398 19.156 151.595 19.156 151.595C19.156 151.595 18.7842 143.171 19.3246 137.254C19.865 131.337 21.2085 121.387 21.8431 117.411C22.4776 113.435 26.1612 107.213 27.9261 102.477C29.691 97.7402 30.7073 93.4599 32.269 90.5487C33.8307 87.6375 35.3477 82.4812 36.2649 81.9357C37.182 81.3902 38.1537 82.2504 39.1502 83.7559C40.1467 85.2613 37.7423 94.0107 37.7423 94.0107C39.4873 90.9684 40.583 84.6843 41.2126 83.053C41.8422 81.4216 43.0569 73.8472 43.0569 73.8472C43.699 73.4076 44.4037 73.0799 45.144 72.8768C45.7956 72.6832 46.4876 72.7052 47.1271 72.9398C48.9218 73.6846 49.8736 77.8495 49.3927 82.6701C48.9119 87.4906 46.3487 97.8399 46.3487 97.8399L53.7852 85.8908C55.2229 83.5723 57.7018 74.4609 58.143 73.8735C58.4652 73.4433 60.4781 72.3838 62.0496 73.4171C62.7481 73.9159 63.2588 74.6586 63.4923 75.5153C64.7962 79.5385 61.0135 88.5817 60.5177 90.3546C60.0963 91.8024 56.8143 97.7717 55.6344 99.9066L55.2576 100.594C55.5948 100.069 57.9596 96.56 59.7195 95.9987C61.6233 95.3955 65.396 92.8095 67.8154 91.2516C70.2347 89.6937 70.3438 84.2699 73.6952 88.6289C75.113 90.4753 74.2901 93.7589 73.0457 96.7436C71.8013 99.7282 65.8472 105.094 65.8472 105.094C65.6191 105.771 65.0589 107.339 64.3599 109.249C64.3351 109.327 64.3054 109.401 64.2756 109.48C64.1566 109.826 64.0277 110.182 63.8939 110.529C63.7204 111.011 63.5369 111.51 63.3535 112.008C63.2543 112.27 63.1601 112.532 63.066 112.8C62.9718 113.067 62.8379 113.414 62.7239 113.718C62.6693 113.875 62.6098 114.027 62.5553 114.179C62.5553 114.221 62.5256 114.269 62.5057 114.305C62.4115 114.568 62.3124 114.83 62.2182 115.082L62.0546 115.522C61.8563 116.047 61.658 116.571 61.4745 117.07C61.4517 117.119 61.4319 117.17 61.4151 117.222C61.3655 117.342 61.3159 117.474 61.2713 117.594C61.1721 117.851 61.0779 118.119 60.9837 118.334C60.8895 118.549 60.8053 118.79 60.7259 119.005C60.3492 119.949 60.0567 120.642 59.9079 120.909C59.1444 122.273 61.6332 136.598 63.6162 134.81C65.5993 133.021 70.785 124.151 70.785 124.151C71.5138 119.026 74.2554 114.961 77.934 113.272C78.2447 113.128 78.5624 113.002 78.8858 112.894C83.0651 111.504 83.5113 114.909 83.5113 114.909C78.3901 127.592 81.677 126.574 78.1818 131.033Z" fill="white"/>
<path opacity="0.4" d="M46.3635 97.8556L39.2741 109.317C39.8739 105.121 43.3939 96.1509 43.3939 96.1509C43.8896 92.7151 48.1681 76.685 46.7353 74.162C46.2777 73.6453 45.7394 73.2158 45.1439 72.8926C45.7955 72.699 46.4875 72.721 47.127 72.9555C48.9216 73.7004 49.8735 77.8653 49.3926 82.6858C48.9117 87.5064 46.3635 97.8556 46.3635 97.8556Z" fill="#48D8E8"/>
<path opacity="0.4" d="M39.1255 83.7716C39.1603 83.8188 39.2495 83.9447 39.3784 84.1441C39.3307 83.9152 39.2711 83.6893 39.1999 83.4674L39.1255 83.7716Z" fill="#48D8E8"/>
<path opacity="0.4" d="M31.4061 109.181C31.4061 109.181 36.5124 99.9853 38.6492 92.0017C39.4424 89.0485 39.8242 86.2579 39.3978 84.1703C39.3501 83.9414 39.2905 83.7155 39.2193 83.4936L39.1301 83.7769C38.7879 83.2283 38.3778 82.7307 37.9105 82.2976C38.3071 83.6615 38.5252 86.1688 36.6215 89.5783C33.642 94.9182 33.0669 102.346 31.4061 109.181Z" fill="#48D8E8"/>
<path opacity="0.4" d="M63.9282 137.212C66.7392 134.805 69.0197 127.964 71.9894 124.487C71.9894 124.487 71.8952 118.276 77.9385 113.345C74.2451 115.034 71.5184 119.115 70.7896 124.224C70.7896 124.224 65.5989 133.094 63.6208 134.883C61.6427 136.672 59.159 122.347 59.9125 120.983C60.0612 120.715 60.3537 120.023 60.7305 119.073C60.8148 118.864 60.8991 118.638 60.9933 118.407C61.0875 118.176 61.1767 117.919 61.2759 117.668C61.3254 117.547 61.3701 117.416 61.4196 117.295C61.4365 117.243 61.4563 117.192 61.4791 117.143C61.6626 116.65 61.8559 116.131 62.0592 115.596C62.1137 115.449 62.1682 115.302 62.2277 115.155C62.317 114.898 62.4161 114.631 62.5153 114.379C62.5153 114.337 62.5153 114.295 62.5599 114.248C62.6144 114.101 62.6739 113.949 62.7285 113.791C62.8425 113.487 62.9516 113.183 63.0705 112.873L63.3581 112.081C63.5415 111.583 63.7249 111.085 63.8985 110.602C64.0274 110.24 64.1563 109.883 64.2852 109.553C64.31 109.474 64.3397 109.396 64.3645 109.322C64.0968 109.873 59.1441 120.002 57.2651 122.153C55.3862 124.303 57.0916 139.504 60.9586 138.235C60.9536 138.225 61.8361 139.001 63.9282 137.212Z" fill="#48D8E8"/>
<path opacity="0.4" d="M19.2997 137.27C18.7593 143.187 19.1312 151.611 19.1312 151.611C19.1312 151.611 16.9597 155.409 16.2111 159.149C16.0078 160.156 14.7734 162.485 13.0878 165.349C13.5191 164.735 18.1347 158.162 18.7593 155.582C19.4137 152.87 20.3359 152.34 22.6213 149.445C24.9068 146.549 26.9791 147.551 26.9791 147.551C26.9791 147.551 25.6505 156.054 29.0316 151.223C32.4127 146.392 34.4503 140.165 35.2534 116.786C35.2534 116.786 33.7661 119.32 32.2788 127.671C30.7916 136.021 28.2681 137.957 28.2681 137.957C26.8352 132.022 26.0583 125.932 25.9529 119.808C25.9529 119.808 24.0938 129.528 23.5236 134.039C22.9535 138.55 22.8196 128.416 22.5321 122.09C22.2545 116.157 22.7354 114.075 24.3962 110.392C23.2014 112.978 22.1603 115.47 21.843 117.426C21.1836 121.402 19.8401 131.353 19.2997 137.27Z" fill="#48D8E8"/>
<path opacity="0.4" d="M48.2622 165.564C47.6087 166.286 46.9098 166.961 46.1701 167.583C43.2897 170.054 36.5968 183.23 32.4671 191.712C33.295 187.993 34.7823 182.758 37.281 178.106C41.7528 169.781 46.1651 167.588 48.2622 165.564Z" fill="#48D8E8"/>
<path opacity="0.4" d="M60.5224 90.3861C60.101 91.8339 56.8191 97.8032 55.6392 99.9381C54.1519 101.763 50.0816 110.712 49.0851 112.003C48.0887 113.293 46.18 113.403 47.0277 111.42C48.4109 108.184 52.6051 97.1003 54.7716 94.9497C56.9381 92.799 60.2696 83.7034 61.9552 78.5891C62.803 76.0031 62.5452 74.3928 62.0742 73.3804C62.7727 73.8792 63.2833 74.6219 63.5169 75.4786C64.8059 79.57 61.043 88.5922 60.5224 90.3861Z" fill="#48D8E8"/>
<path opacity="0.4" d="M67.8105 91.2988C65.4011 92.8725 61.6432 95.427 59.7345 96.0197C59.9923 95.9673 63.3883 95.3011 64.6128 97.5042C65.882 99.8069 65.8423 105.136 65.8423 105.136C65.8423 105.136 71.7915 99.7702 73.0408 96.7856C74.2901 93.8009 75.1082 90.5173 73.6903 88.6656C70.3389 84.3171 70.2348 89.7462 67.8105 91.2988Z" fill="#48D8E8"/>
<path d="M28.9919 199.014C28.9919 199.014 41.8818 171.281 46.1751 167.583C50.4684 163.885 50.4139 161.813 52.7341 159.159C55.0543 156.505 68.5589 152.34 70.2247 148.049C71.8904 143.758 74.6866 135.502 78.1867 131.038C81.6868 126.574 78.3899 127.592 83.5161 114.982C83.5161 114.982 83.06 111.578 78.8857 112.968C74.7114 114.358 71.5632 118.67 70.7849 124.23C70.7849 124.23 65.5942 133.095 63.6112 134.883C61.6281 136.672 59.1493 122.347 59.9078 120.983C60.6663 119.619 65.0687 107.397 65.857 105.157C65.857 105.157 71.8062 99.7859 73.0505 96.8065C74.2949 93.8271 75.1228 90.512 73.7049 88.6866C70.3536 84.3171 70.2346 89.7357 67.8252 91.3093C65.4158 92.8829 61.638 95.4532 59.7293 96.0564C57.8206 96.6597 55.203 100.709 55.203 100.709C55.203 100.709 60.002 92.1591 60.5225 90.3861C61.0431 88.6132 64.801 79.57 63.4971 75.5468C62.1933 71.5235 58.594 73.2912 58.1528 73.8787C57.7116 74.4662 55.2327 83.5723 53.7901 85.8908L46.3536 97.8556C46.3536 97.8556 48.9167 87.5169 49.3976 82.6911C49.8785 77.8652 48.9018 73.7004 47.1319 72.9503C45.362 72.2002 43.0518 73.863 43.0518 73.863C43.0518 73.863 41.857 81.4322 41.2026 83.0635C40.5482 84.6948 39.4525 90.9841 37.7322 94.0265C37.7322 94.0265 40.1367 85.2718 39.1402 83.7664C38.1437 82.2609 37.1571 81.4059 36.2598 81.9514C35.3625 82.497 33.8157 87.648 32.259 90.5645C30.7023 93.4809 29.676 97.756 27.9161 102.493C26.1561 107.229 22.4825 113.445 21.8231 117.442C21.1637 121.439 19.84 131.374 19.2997 137.291C18.7593 143.208 19.1311 151.632 19.1311 151.632C19.1311 151.632 16.9596 155.43 16.211 159.17C15.4624 162.91 0.500238 184.872 0.500238 184.872" stroke="#263238" stroke-linecap="round" stroke-linejoin="round"/>
<path d="M46.3635 97.8556C44.9258 99.7649 40.3796 108.278 39.2741 109.317C38.7017 109.906 37.9832 110.312 37.2018 110.487" stroke="#263238" stroke-linecap="round" stroke-linejoin="round"/>
<path d="M37.7172 94.0265C37.7172 94.0265 37.4098 95.9358 34.8764 101.648C32.3431 107.36 31.2177 109.747 30.3352 110.922" stroke="#263238" stroke-linecap="round" stroke-linejoin="round"/>
<path d="M55.2028 100.709C53.0809 104.003 50.8996 109.626 49.7791 111.163C48.6587 112.7 47.9696 112.905 47.9696 112.905" stroke="#263238" stroke-linecap="round" stroke-linejoin="round"/>
<path d="M51.0288 108.887C50.1785 109.243 49.4279 109.823 48.8475 110.571" stroke="#263238" stroke-linecap="round" stroke-linejoin="round"/>
<path d="M63.6311 134.883C63.6311 134.883 61.7274 139.52 58.9709 138.303" stroke="#263238" stroke-linecap="round" stroke-linejoin="round"/>
<path d="M59.9078 120.983C59.9078 120.983 57.662 126.506 58.242 129.297" stroke="#263238" stroke-linecap="round" stroke-linejoin="round"/>
<path d="M37.0529 114.337C37.0529 114.337 34.8071 115.013 35.1343 119.058C35.4615 123.102 33.8403 138.466 33.8403 138.466" stroke="#263238" stroke-linecap="round" stroke-linejoin="round"/>
<path d="M27.6781 115.732C26.0123 118.795 25.9181 118.879 26.161 123.296C26.4039 127.713 25.9181 138.266 25.9181 138.266" stroke="#263238" stroke-linecap="round" stroke-linejoin="round"/>
<path d="M19.1312 151.611C19.1312 151.611 21.0894 149.292 20.6185 146.785" stroke="#263238" stroke-linecap="round" stroke-linejoin="round"/>
<path d="M46.1753 167.583C46.1753 167.583 41.763 171.37 38.9966 176.249" stroke="#263238" stroke-linecap="round" stroke-linejoin="round"/>
</svg>
