<svg width="37" height="43" viewBox="0 0 37 43" fill="none" xmlns="http://www.w3.org/2000/svg">
<g filter="url(#filter0_d_211_461)">
<path fill-rule="evenodd" clip-rule="evenodd" d="M19.9109 20.0292C16.2081 14.5174 9.10588 12.7931 4.02678 16.1807C9.11721 12.7855 10.2477 5.54112 6.55195 2.61863e-06C10.2548 5.51188 17.357 7.23616 22.4361 3.84853C17.3456 7.24377 16.2152 14.4881 19.9109 20.0292Z" fill="#48D8E8"/>
</g>
<g filter="url(#filter1_d_211_461)">
<path fill-rule="evenodd" clip-rule="evenodd" d="M22.8703 34.9467C20.5858 31.544 15.7865 30.7534 12.1362 33.1837C15.7946 30.748 16.9134 25.9994 14.6352 22.5774C16.9196 25.9801 21.719 26.7707 25.3693 24.3404C21.7108 26.7761 20.592 31.5247 22.8703 34.9467Z" fill="#48D8E8"/>
</g>
<g filter="url(#filter2_d_211_461)">
<path fill-rule="evenodd" clip-rule="evenodd" d="M30.6305 22.0302C28.5091 19.0688 24.1803 18.5265 20.9487 20.8221C24.1875 18.5214 25.0976 14.2413 22.9816 11.2624C25.1028 14.2239 29.4317 14.7661 32.6634 12.4706C29.4245 14.7713 28.5144 19.0513 30.6305 22.0302Z" fill="#48D8E8"/>
</g>
<defs>
<filter id="filter0_d_211_461" x="0" y="0" width="26.4626" height="28.0825" filterUnits="userSpaceOnUse" color-interpolation-filters="sRGB">
<feFlood flood-opacity="0" result="BackgroundImageFix"/>
<feColorMatrix in="SourceAlpha" type="matrix" values="0 0 0 0 0 0 0 0 0 0 0 0 0 0 0 0 0 0 127 0" result="hardAlpha"/>
<feOffset dy="4"/>
<feGaussianBlur stdDeviation="2"/>
<feComposite in2="hardAlpha" operator="out"/>
<feColorMatrix type="matrix" values="0 0 0 0 0 0 0 0 0 0 0 0 0 0 0 0 0 0 0.25 0"/>
<feBlend mode="normal" in2="BackgroundImageFix" result="effect1_dropShadow_211_461"/>
<feBlend mode="normal" in="SourceGraphic" in2="effect1_dropShadow_211_461" result="shape"/>
</filter>
<filter id="filter1_d_211_461" x="8.1093" y="22.5774" width="21.2868" height="20.4226" filterUnits="userSpaceOnUse" color-interpolation-filters="sRGB">
<feFlood flood-opacity="0" result="BackgroundImageFix"/>
<feColorMatrix in="SourceAlpha" type="matrix" values="0 0 0 0 0 0 0 0 0 0 0 0 0 0 0 0 0 0 127 0" result="hardAlpha"/>
<feOffset dy="4"/>
<feGaussianBlur stdDeviation="2"/>
<feComposite in2="hardAlpha" operator="out"/>
<feColorMatrix type="matrix" values="0 0 0 0 0 0 0 0 0 0 0 0 0 0 0 0 0 0 0.25 0"/>
<feBlend mode="normal" in2="BackgroundImageFix" result="effect1_dropShadow_211_461"/>
<feBlend mode="normal" in="SourceGraphic" in2="effect1_dropShadow_211_461" result="shape"/>
</filter>
<filter id="filter2_d_211_461" x="16.922" y="11.2624" width="19.768" height="18.8211" filterUnits="userSpaceOnUse" color-interpolation-filters="sRGB">
<feFlood flood-opacity="0" result="BackgroundImageFix"/>
<feColorMatrix in="SourceAlpha" type="matrix" values="0 0 0 0 0 0 0 0 0 0 0 0 0 0 0 0 0 0 127 0" result="hardAlpha"/>
<feOffset dy="4"/>
<feGaussianBlur stdDeviation="2"/>
<feComposite in2="hardAlpha" operator="out"/>
<feColorMatrix type="matrix" values="0 0 0 0 0 0 0 0 0 0 0 0 0 0 0 0 0 0 0.25 0"/>
<feBlend mode="normal" in2="BackgroundImageFix" result="effect1_dropShadow_211_461"/>
<feBlend mode="normal" in="SourceGraphic" in2="effect1_dropShadow_211_461" result="shape"/>
</filter>
</defs>
</svg>
